<svg xmlns="http://www.w3.org/2000/svg" x="0px" y="0px" viewBox="0 0 330 245.257">
<circle fill="#FFFFFF" cx="165" cy="166.294" r="76.421"/>
<circle fill="#FBB03B" cx="165" cy="166.294" r="74.371"/>
<path fill="#FFFFFF" d="M334,175.151c-5-0.311-14.987-0.632-17.816-0.866c-7.576-0.626-22.797-3.066-30.994-3.883
	c-8.198-0.818-35.599-4.93-48.896-5.75c-25.482-1.572-46.585-2.521-57.485-2.028c-10.9,0.494-40.983,3.325-48.12,4.331
	c-30.091,4.241-48.921,3.343-53.251,2.788c-4.328-0.554-17.291-2.03-33.659,1.629c-11.959,2.673-30.5,2.806-38.709,3.439
	C3.644,174.92-2,175.009-4,175.082v70.176h338V175.151z"/>
<path fill="#736357" d="M333,249.257v-72.766c-3-0.177-14.256-0.62-22.553-1.681c-12.332-1.579-36.914-4.595-54.456-6.355
	c-17.681-1.776-39.134-3.559-58.498-3.684c-15.469-0.1-21.563,0.915-28.762,1.236c-25.886,1.151-45.722,3.894-62.759,5.755
	c-12.681,1.386-36.543-1.783-41.041-1.611c-14.362,0.548-15.217,2.236-28.804,3.592C23.685,174.984,4,175.796-3,176.076v73.182H333z
	"/>
<path fill="#998675" d="M6.294,176.721c0,0,32.459-1.156,41.092-2.799c7.867-1.499,13.334-2.379,19.826-1.982
	c15.59,0.951,29.333,2.694,40.259,1.29c21.668-2.784,63.109-7.223,76.372-7.223c13.261,0,53.993,1.683,73.886,4.157
	c11.696,1.456,24.369,2.264,40.233,4.388c15.037,2.013,27.676,2.381,34.306,2.812c-23.32,0.988-39.083,0.661-56.719,5.837
	c-37.232,10.928-52.843,13.312-90.923,11.971c-34.477-1.215-52.084-10.768-82.562-13.852c-30.387-3.074-37.672-5.79-49.911-4.601
	C36.432,178.248,6.294,176.721,6.294,176.721z"/>
<path fill="#736357" d="M115.755,179.9c0,0,5.311-3.393,8.626-4.695c3.315-1.303,5.312-1.878,6.522-2.764
	c2.374-1.741,2.936-10.925,3.114-17.743c0.117-4.522,1.866-6.93,1.629-14.271c-0.236-7.341,0.71-11.126,0-13.731
	c-0.71-2.605-1.185-7.341-4.974-7.696c-3.788-0.355-13.452-0.994-15.511,0.001c-3.513,1.698-8.328,5.802-10.459,7.064
	c-2.131,1.264-5.447,4.58-7.184,5.448c-1.734,0.868-4.341,1.262-5.447,3.473c-1.103,2.21-3.551,3.552-4.971,4.341
	c-1.421,0.789-1.736,2.29-3.868,1.974c-2.132-0.316-5.447,0.395-7.263,1.657c-1.815,1.263-3.868,1.895-5.448,2.132
	c-1.578,0.237-1.183-0.947,0.869-1.5c2.053-0.554,3.947-2.21,5.685-2.684c1.735-0.474,4.184-1.738,5.842-1.658
	c1.656,0.079,4.34-1.973,4.972-3.394c0.632-1.421,3.157-5.29,5.843-6.08c2.683-0.789,5.287-1.894,6.707-3.789
	c1.424-1.894,3.711-3.235,4.027-4.578c0.316-1.343,1.658-2.94,1.658-2.94s-7.973,3.019-9.314,5.071
	c-1.343,2.052-7.184,3.473-8.763,3.631c-1.578,0.158-6.395,0.631-7.025,3.315c-0.632,2.684-2.999,5.999-7.814,7.499
	c-4.814,1.499-10.972,3.078-13.815,5.446c-2.841,2.369-7.893,2.921-9.71,1.105c-1.814-1.815-3.472-1.105-7.104,0.396
	c-3.629,1.498-7.104,2.841-10.892,3.236c-3.788,0.396-6.473-0.236-9.077-0.79c-2.605-0.553-2.053-1.815,0.553-1.342
	c2.604,0.473,6.63,1.026,9.551,0.395c2.92-0.631,7.578-2.605,10.262-4.026c2.685-1.42,5.604-3.156,7.815-2.131
	c2.21,1.027,4.579,1.263,6.71,0.316c2.132-0.948,6.077-4.342,8.92-4.894c2.841-0.553,6.157-3.078,6.788-5.131
	c0.632-2.052,2.438-5.051,5.206-5.683c2.767-0.631,8.607-2.053,10.423-2.999c1.817-0.947,3.475-3.414,3.475-3.414
	s-4.025-3.296-10.498-2.823c-6.474,0.474-9.394,1.5-13.184,0.868c-3.788-0.631-6.236-1.593-9.313-0.915
	c-3.08,0.678-4.343,0.915-5.764,0.284c-1.42-0.632,0.553-1.579,1.896-1.737c1.341-0.158,3.473-0.395,4.972-0.947
	c1.501-0.553,5.053,0.71,6.553,0.947c1.499,0.237,6.393,0,8.367-0.474c1.973-0.474,8.683-1.106,13.024,0.237
	c4.341,1.342,6.473,2.21,6.473,2.21s2.808-3.402,4.421-4.42c2.999-1.896,11.92-3.237,19.182-3.316
	c7.262-0.079,19.341-0.553,20.445-4.894c1.105-4.341-2.132-17.288-2.132-17.288s-5.999-1.263-9.788,0
	c-3.788,1.264-7.814-0.71-10.025-1.262c-2.21-0.553-6.315-1.737-8.209-1.737c-1.894,0-4.736-1.816-3.946-3.395
	c0.789-1.578,3.235,1.264,5.524,1.737c2.29,0.474,5.448,1.184,6.553,1.184s6.156,1.765,8.209,1.607c2.053-0.159,6-1.078,7.895-1.078
	s3.158,0,3.158,0s-0.632-5.632-3.868-6.264c-3.237-0.631-6.632-3.487-10.422-4.75c-3.788-1.263-7.499-1.94-13.577-2.1
	c-6.077-0.157-10.182-0.496-13.497-1.681c-3.316-1.184-11.21-4.353-13.342-1.827c-2.131,2.526-4.105,4.494-4.814,7.888
	c-0.711,3.395-4.895,8.521-4.895,8.521s2.604-4.815,3.315-7.263c0.71-2.447,0.632-3.316,1.5-4.895
	c0.869-1.579,1.58-2.843,1.58-2.843s-3.396-0.474-4.579-3.947c-1.185-3.474-1.502-4.263-4.895-5.21
	c-3.396-0.947-7.42-1.815-7.42-1.815s6.394-0.158,9.393,1.026c2.999,1.185,3.756,2.799,4.421,4.657
	c1.185,3.316,3.711,3.552,3.711,3.552s2.131-2.842,5.92-2.763c3.789,0.079,10.341,2.763,13.893,3.236c3.553,0.474,10.972,0,12.631,0
	c1.658,0,2.605-1.184,2.605-1.184s-2.368-3.394-2.368-5.763c0-2.368-2.052-6.868-4.026-5.526c-1.973,1.342-5.051,2.21-7.104,2.289
	c-2.053,0.079-5.605-0.394-7.264,0.948c-1.657,1.342-5.13,3.473-7.971,4.263c-2.842,0.789-4.976,0.71-6.474,0.71
	c-1.5,0-1.579-1.184,0-1.5c1.579-0.315,3.947,0.079,6.157-0.552c2.21-0.632,4.814-2.369,6.314-3.79
	c1.5-1.42,4.185-2.131,7.341-2.131c3.158,0,5.526-1.342,6.71-2.052c1.184-0.71,2.289-1.105,2.289-1.105s0.632-4.816,0.632-6.315
	c0-1.5,0.789-4.816,1.105-6.316c0.316-1.5,0.552-3.158,0-3.868c-0.554-0.711,0.552-1.342,1.342,0
	c0.79,1.341,0.079,4.341,0.079,4.341s1.499-0.553,3.236,0c1.736,0.552,2.525,0.474,3.552-0.158c1.027-0.631,1.026,0.789,0.159,1.026
	c-0.87,0.237-1.658,0.87-2.922,0.553c-1.263-0.316-2.764-0.632-3.631-0.316c-0.867,0.316-1.105,2.052-1.183,3.552
	c-0.081,1.5-0.316,7.578-0.316,7.578s1.025-0.079,2.052,0.631c1.025,0.71,0.946,1.5,0.946,1.5s3.711-2.368,5.21-3
	c1.501-0.632,3.948-1.184,5.921,1.263c1.973,2.447,3.947,2.841,5.763,2.447c1.814-0.394,2.447-0.157,2.763,0.316
	c0.315,0.474-2.212,0.237-3.71,0.552c-1.5,0.316-2.921,0.079-4.658-1.816c-1.736-1.894-3.394-2.604-4.419-2.13
	c-1.027,0.474-3.317,1.736-4.265,2.368c-0.946,0.631-1.813,1.185-1.499,2.683c0.315,1.5,1.342,4.342,2.29,6
	c0.947,1.658,2.685,3.236,2.685,3.236s4.894-0.236,7.025-0.395c2.131-0.157,7.105-1.342,9.235-1.342
	c2.132,0,8.366-2.447,8.366-2.447s0.159-4.815-0.473-6.788c-0.632-1.974-0.395-4.895-0.395-5.92c0-1.026,0.475-3.158-1.5-4.105
	c-1.974-0.947-7.183-1.895-10.264-4.658c-3.077-2.763-6.392-5.046-8.682-5.76c-2.289-0.713-5.211-0.471-6.315,0
	c-1.104,0.471-2.132,0.234-3.079,0.471c-0.946,0.236-1.104-0.947,0.317-1.264c1.42-0.315,3.63-0.71,3.63-0.71
	s-2.053-0.789-4.579-0.71c-2.523,0.08-4.972,1.026-6.313,2.369c-1.343,1.341-4.737,3.394-6,3.552
	c-1.263,0.158-3.314,0.316-5.131,1.026c-1.815,0.71-1.973-1.104,0.474-1.657c2.448-0.553,4.184-0.395,5.92-1.342
	c1.737-0.947,2.29-1.894,2.29-1.894s-1.746-2.369-4.272-3.631c-2.525-1.264-5.516-2.368-7.884-2.368
	c-2.368,0-3.315-1.263-0.475-1.342c2.843-0.079,7.863,0.92,9.947,2.131c2.036,1.184,4.024,2.921,5.525,2.447
	c1.904-0.602,2.842-0.947,5.919-1.105c3.08-0.158,4.5-0.395,4.5-0.395s-1.183-3.394-1.578-5.21
	c-0.396-1.816-1.658-5.447-1.658-5.447s-2.605,0.631-3.157,1.974c-0.552,1.341-4.263,3.71-5.526,4.026
	c-1.262,0.315-4.263-0.158-5.762-0.789c-1.499-0.631-0.632-1.342,1.264-0.868c1.894,0.474,4.262,0.79,5.525-0.079
	c1.263-0.869,3-3.71,4.341-4.263c1.342-0.553,2.999-1.658,4.815-2.052c1.816-0.395,5.131-1.263,6.631-2.368
	c1.499-1.105,2.764,0.079,3.947,0c1.184-0.079,1.815,0.947,0.71,1.342c-1.105,0.395-3.078-0.79-4.026,0.079
	c-0.947,0.868-2.446,1.184-4.104,1.737c-1.659,0.552-2.526,0.631-2.526,0.631s1.42,4.183,1.894,5.763
	c0.475,1.578,2.131,4.736,3.395,5.367c1.264,0.632,5.052,1.816,5.052,1.816s3.711-3.947,7.5-4.815
	c3.788-0.869,6.078-1.105,8.841-2.131c2.763-1.026,4.895-1.658,5.211-1.105c0.314,0.552-1.817,0.947-2.922,1.578
	c-1.104,0.632-5.211,2.053-7.974,2.606c-2.762,0.552-4.815,1.262-5.919,2.13c-1.105,0.869-2.525,2.684-2.525,2.684
	s3.393,2.526,5.366,3.473c1.975,0.948,6.078,2.842,7.816,3.474c1.736,0.632,4.895,1.105,4.895,1.105s-1.658-2.763-3.079-4.263
	c-1.421-1.499-3.474-2.526-5.13-2.762c-1.659-0.237-3.001-1.421-3.079-2.685c-0.079-1.263,0.474-1.657,1.105-1.499
	c0.631,0.157-0.159,1.342,0.709,2.131c0.869,0.789,3.552,0.71,5.29,1.894c1.737,1.184,4.024,3.473,4.815,4.657
	c0.789,1.185,2.289,0.711,2.683-0.789c0.395-1.5,0.554-5.526,0-7.737c-0.552-2.209-0.867-5.13-0.474-8.051
	c0.395-2.921,0.831-4.578,0.831-4.578s-3.909,0.71-5.093,0.236c-1.185-0.473-2.92-2.921-4.895-2.368
	c-1.975,0.552-2.289,1.5-2.289,3.157s-0.947,1.816-1.578,1.579c-0.632-0.237,0.867-1.42,0.709-3
	c-0.156-1.579,1.343-2.999,2.764-3.078c1.421-0.079,3.553,0.631,3.553,0.631s-1.422-1.657-2.764-2.131
	c-1.342-0.474-2.842-0.078-3.553,1.738c-0.71,1.814-3.552,3.867-4.499,4.577c-0.946,0.711-3.946,1.58-3.946,1.58
	s4.184-3.316,5.289-4.5c1.105-1.184,2.447-3.868,2.447-3.868s-2.764-0.631-5.133-2.052c-2.366-1.42-6.865-4.263-6.865-4.263
	s6.315,2.763,8.208,3.552c1.895,0.79,3.948,1.342,4.895,1.421c0.947,0.079,4.422-0.474,5.921,1.42
	c1.499,1.895,3.076,3.157,4.341,2.526c1.264-0.631,2.763-2.368,4.737-2.841c1.973-0.474,2.842-2.289,3.393-2.921
	c0.554-0.631-0.789-2.921-2.604-4.105c-1.814-1.184-3.236-0.158-5.762,0c-2.527,0.158-4.104-2.21-7.025-2.526
	c-2.922-0.316-7.579-1.105-7.579-1.105s7.184-0.711,9.71,0c2.526,0.71,3.553,2.052,6.395,1.657c2.841-0.395,5.777,0.474,6.993,2.053
	c1.216,1.578,3.111-0.79,6.899-0.08c3.789,0.71,6.632,1.342,8.841,1.026c2.209-0.316,7.105-1.263,7.105-1.263
	s-3.236,1.736-4.896,2.21c-1.656,0.474-5.13,0.869-7.734,0.553c-2.605-0.315-6.79-0.79-7.895,1.499
	c-1.104,2.289-5.052,8.131-5.13,11.526c-0.078,3.395-0.237,6.473,0.474,8.998c0.71,2.526,1.5,3.631,1.5,3.631s4.736-1.5,7.814,1.027
	c3.081,2.525,4.105,4.814,3.79,6.394c-0.316,1.579-1.658,2.447-0.395,4.105c1.263,1.657,1.736,3.079,0.71,2.842
	c-1.024-0.237-2.211-2.132-2.842-2.921c-0.632-0.789-0.946-2.605,0-3.394c0.948-0.79,0.316-3.947-1.815-5.289
	c-2.131-1.342-3.632-1.42-4.736-1.184c-1.104,0.237-3.474,1.342-3.71,3.316c-0.237,1.973-1.184,8.525-0.711,10.341
	c0.474,1.815,0.87,3.632,0.87,3.632s3.077,0.237,4.736,0.237c1.657,0,5.051,0,6.473-0.71c1.42-0.71,3.077-2.999,4.972-2.605
	c1.896,0.395,6.474-2.92,8.052-3.789c1.58-0.869,3.79-3.631,4.816-3.079c1.025,0.552-2.369,3.631-3.553,4.42
	c-1.185,0.79-3.789,3-5.052,3.473c-1.264,0.474-4.658,0.316-5.998,1.895c-1.343,1.579-3.712,2.526-6.79,2.605
	c-3.08,0.079-7.499,0.553-8.368,1.105c-0.867,0.553-1.024,3.157-0.946,4.657c0.079,1.5,2.131,9.078,2.604,11.289
	c0.476,2.21,1.263,7.026,1.263,7.026s6.079-4.105,8.999-5.605c2.922-1.5,9.473-4.815,12.079-5.368
	c2.604-0.553,6.946,0.316,8.841,0.079c1.895-0.237,4.579,0.631,6.314,1.105c1.737,0.474,4.024,0.79,4.024,1.657
	c0,0.869-1.735,2.211-3.787,1.027c-2.054-1.185-6.472-1.816-8.21-1.106c-1.736,0.71-8.367-0.158-12.235,2.448
	c-3.868,2.604-9.077,5.683-10.815,7.656c-1.734,1.974-1.024,4.499-0.631,6.315c0.396,1.816,2.211,6.316,3.158,7.974
	c0.946,1.657,2.841,4.026,4.656,5.684c1.816,1.658,6.473,4.42,8.447,4.658c1.973,0.236,7.104-2.527,8.842-6.394
	c1.735-3.868,6.077-13.025,8.446-16.183c2.368-3.157,7.104-7.499,7.104-7.499s-2.843-4.184-4.657-6.315
	c-1.815-2.132-3-5.054-3-5.054s-3.709-3.788-5.604-3.788s-4.975-1.263-5.921-3c-0.947-1.736-2.606-2.368-5.052-2.29
	c-2.448,0.08-1.5-1.579,0.553-1.499c2.053,0.078,3.709,0.473,5.13,1.815c1.422,1.342,2.527,2.921,4.421,3.158
	c1.895,0.236,2.604,0.158,3.71,0.868c1.105,0.71,3.158,1.973,3.158,1.973s0.946-2.684-0.317-4.5
	c-1.262-1.815-0.789-5.841-0.789-5.841s-4.262-3.315-5.367-6.157c-1.105-2.842-2.288-4.263-4.736-4.658
	c-2.446-0.395-4.342-0.789-5.604,0.947c-1.264,1.737-3.394,2.29-4.657,2.369c-1.262,0.078-2.052-0.631,0.237-1.658
	c2.29-1.027,3.395-1.421,4.578-2.684c1.185-1.264,3.078-1.026,4.5-0.79c1.42,0.236,3.235,0.552,3.235,0.552s-1.974-3.63-4.42-4.657
	c-2.446-1.026-7.421-1.895-9.236-1.184c-1.815,0.71-2.367-0.79-0.314-1.579c2.052-0.79,5.209-0.316,7.262,0.079
	c2.052,0.394,5.999,2.446,7.578,4.341c1.578,1.895,2.549,5.239,3.632,7.262c1.813,3.394,5.287,5.763,5.287,5.763
	s2.843-4.263,3.79-5.21c0.947-0.947,3.553-3.079,3.788-4.342c0.237-1.263-0.472-4.025-3.236-4.973
	c-2.763-0.947-7.577-3.473-9.945-4.5c-2.369-1.026-4.107-2.289-3.947-3.079c0.157-0.789,3.395,1.027,5.052,1.816
	c1.658,0.789,7.42,3.947,9.156,4.184c1.737,0.237,4.422,0.71,5.29,3.236c0.867,2.526,5.21,2.289,6.314,0.631
	c1.105-1.658,1.58-3.079,0-3.394c-1.579-0.316-1.421-2.368,0.315-2.21c1.737,0.158,3.396,1.657,3.632,3.316
	c0.236,1.658-1.501,3.631-2.289,4.105c-0.789,0.473-1.184,2.288-0.475,3.394c0.711,1.105,3,4.104,4.973,4.026
	c1.975-0.08,6.79-1.5,8.526-1.185c1.735,0.316,1.815,2.368-0.315,2.368c-2.131,0-6.552,0.553-8.289,1.184
	c-1.734,0.632-4.42-1.026-5.763-3.236c-1.342-2.21-4.656-1.579-6.393-0.553c-1.737,1.026-5.684,3.552-5.684,6.552
	c0,2.999,0.394,6.314,2.366,6.473c1.975,0.158,4.658,0.079,6.317,1.973c1.656,1.895,2.287,3.158,4.104,4.105
	c1.815,0.947,2.842,1.342,2.842,1.342s4.736-3.789,6.474-5.684c1.736-1.895,5.761-5.92,7.656-7.735
	c1.894-1.816,4.657-6.078,4.579-10.262c-0.08-4.184-0.001-6.394-1.816-7.421c-1.816-1.025-2.606-5.288-2.606-7.183
	c0-1.894,1.105-2.763,1.185-1.263c0.079,1.5,0.316,4.5,1.578,6.394c1.264,1.894,2.842,2.289,2.922,5.605
	c0.079,3.315,0.158,5.525-0.395,7.499c-0.554,1.973-1.42,3.552-1.42,3.552s4.578-3.079,6.71-4.658
	c2.131-1.579,4.183-3.315,7.972-3.789c3.79-0.473,6.712-0.552,8.525-1.341c1.816-0.79,4.185-1.342,4.342-0.474
	c0.158,0.868-5.053,2.21-6.789,2.446c-1.736,0.237-7.814,0.474-9.631,1.974c-1.814,1.5-6.393,4.184-8.288,6
	c-1.895,1.815-6.314,5.841-7.656,7.42c-1.343,1.579-4.973,6.078-4.973,6.078s6.947-0.631,9.552-0.71
	c2.604-0.079,5.366-3.79,6.157-5.763c0.789-1.974,0.947-3.789,0.789-4.974c-0.158-1.184,0.631-2.446,1.342-1.104
	c0.71,1.342,0.236,3.394-0.159,5.21c-0.395,1.815-1.024,3-1.656,4.025c-0.632,1.026-2.764,2.921-2.764,2.921s5.21,1.816,7.104,1.895
	c1.894,0.079,3.946,0,5.686-1.736c1.734-1.737,4.183-3,5.84-3.316c1.656-0.315,3.394-2.604,3.394-2.604s-1.341,2.763-2.445,3.395
	c-1.106,0.631-3.554,1.026-4.659,2.368c-1.105,1.342-2.21,3.157-3.946,3.709c-1.736,0.553-4.814,0.158-5.92-0.079
	c-1.105-0.237-2.921-0.79-2.921-0.79s2.289,3.552,4.185,4.815c1.894,1.263,5.683,3.946,6.708,6.789
	c1.027,2.841,2.921,6.946,2.921,6.946s5.378-0.632,8.136,1.184c2.758,1.816,4.336,4.815,6.547,5.684
	c2.211,0.868,3,1.106,5.289,1.461c2.289,0.355-0.158,1.933-4.184,0.591c-4.027-1.342-6.314-4.022-8.368-4.815
	c-3.474-1.342-8.211,0.474-8.211,0.474s8.209,2.132,8.368,3.751c0.156,1.618,4.341,0.197,5.604,1.46
	c1.677,1.678,1.407,1.432,3.156,3.473c0,0-2.92-2.526-4.735-2.604c-1.815-0.079-0.632,1.105-0.314,2.131
	c0.314,1.026,2.445,2.842,3.078,5.21c0.631,2.368,1.972,5.684,1.972,5.684s-2.841-2.921-3.078-4.579
	c-0.236-1.658-3.236-5.684-5.289-7.104c-2.052-1.421-5.604-2.052-7.183-1.184c-1.58,0.868-4.5,0.79-4.816,2.053
	c-0.315,1.262-0.552,3.946-0.552,3.946s-1.421-2.369-1.421-3.789c0-1.42,1.896-2.21,1.657-3.868
	c-0.236-1.658-2.999-3.237-5.13-2.842c-2.131,0.395-4.421,3.158-6.788,3.552c-2.368,0.396-5.526,1.5-5.685,3.474
	c-0.158,1.974-1.816,2.526-3.236,3.473c-1.421,0.948-2.29,3.87-1.104,5.053c1.185,1.183,3.237,0.078,4.658,1.972
	c1.419,1.895,4.894,1.027,6.473,2.29c1.577,1.262,1.262,3.868,1.262,5.683c0,1.815,2.605,0,4.735,1.341
	c2.132,1.342,2.685,1.895,2.211,3.236c-0.474,1.342-1.735-1.736-3.395-1.657c-1.657,0.079-3.155,2.289-4.813,0
	c-1.658-2.289-1.817-5.763-4.343-5.447c-2.526,0.315-3.709,1.815-5.999,1.895c-2.289,0.079-3.71-1.658-4.421-2.999
	c-0.709-1.342-0.788-2.842-2.289-2.92c-1.5-0.079-1.815,1.5-0.393,2.684c1.42,1.184,5.287,3.553,6.392,5.525
	c1.107,1.974,2.605,6.789,3.316,8.447c0.71,1.657,3.157,3,3.157,5.446c0,2.447-0.157,3.947-1.184,3.947
	c-1.025,0-1.895-1.421-1.657-3.474c0.235-2.052-2.526-3.236-3.236-5.131c-0.711-1.895-1.421-6.789-4.025-9.079
	c-2.605-2.288-5.212-6.156-7.105-6.551c-1.895-0.395-4.815,0.395-6.078,3.71c-1.262,3.315-6.553,10.578-7.579,14.525
	c-1.023,3.947-2.525,8.13-1.893,11.524c0.63,3.394,0.71,10.419,1.186,13.024c0.473,2.605,3.71,8.684,7.105,11.13
	c3.393,2.447,7.893,4.342,10.261,5.29c2.368,0.947,11.21,5.684,11.21,5.684s-9.235,5.525-11.921,5.21
	c-2.685-0.316-9.55-1.658-12.55,0.552c-3,2.21-12.157,1.974-15.631,2.289c-3.474,0.316-10.735-0.552-13.102-1.341
	c-2.368-0.79-9.315,0.053-11.052,1.408c-1.736,1.355-11.525,1.75-13.973,1.355c-2.446-0.395-3.868-4.104-3.868-4.104
	s-6.393,1.42-9.708,1.815c-3.316,0.394-9.71-0.631-12.868-0.395C121.596,180.61,115.755,179.9,115.755,179.9z M200.118,83.596
	c1.125-2.368,2.073-5.683,2.073-5.683s-4.146,4.204-4.855,5.979c-0.712,1.776-1.836,6.275-1.836,6.275
	S198.995,85.965,200.118,83.596z M199.171,60.389c0,0,2.19,3.079,3.021,4.085c0.828,1.006,4.263,5.447,4.263,5.447
	s1.598-1.717,2.723-2.605c1.124-0.888,2.25-1.895,2.25-1.895s-2.605-1.894-3.73-2.9c-1.126-1.006-3.02-2.783-4.617-2.842
	C201.481,59.619,199.171,60.389,199.171,60.389z M208.822,72.881c0,0,1.657,2.546,2.073,3.434c0.413,0.888,1.656,1.953,2.485,2.309
	c0.828,0.355,2.427-0.651,1.598-2.605c-0.829-1.954-1.658-3.374-0.947-4.795c0.711-1.421,1.18-2.96,1.18-2.96
	s-3.073,1.954-3.784,2.486C210.716,71.282,208.822,72.881,208.822,72.881z M221.019,93.78c2.13,0.118,5.149-1.658,6.511-3.463
	c1.361-1.806,7.874-4.766,7.874-4.766s-5.622,0.178-8.052-0.06c-2.427-0.237-8.169-1.065-8.169-1.065s-2.131,4.026-3.553,5.743
	c-1.421,1.717-4.914,6.039-4.914,6.039S218.885,93.661,221.019,93.78z M226.997,80.399c1.36,0.592,5.032,0.77,7.46,0.533
	c2.428-0.237,5.624,0.178,8.172,1.185c2.543,1.006,7.339-0.474,7.339-0.474s-0.118-2.073-0.592-2.949
	c-0.474-0.877-2.605-5.221-3.67-6.05c-1.067-0.829-5.507-4.44-6.691-5.447c-1.184-1.006-3.138-3.67-5.27-3.967
	c-2.132-0.296-7.459,0.829-7.459,0.829s-1.836,6.513-2.369,8.348s-2.07,6.808-2.07,6.808S225.635,79.807,226.997,80.399z
	 M221.848,69.565c0.118-0.947,0.414-4.145,0.414-4.145s-1.481,1.421-2.072,2.842c-0.592,1.421-0.474,3.73-0.474,3.73
	S221.729,70.513,221.848,69.565z"/>
<path fill="#C7B299" d="M159.327,159.701c0,0,0-6.126,1.185-9.087c1.184-2.959,1.895-13.379,2.604-15.512
	c0.712-2.13,1.54-4.854,2.015-7.577c0.473-2.724,1.42-7.815,1.893-9.236c0.474-1.42,2.25-1.657,2.842-2.249
	c0.592-0.591,3.077,1.066,3.552,2.842c0.473,1.777,0.473,8.763,0,11.723c-0.475,2.96-0.829,10.656-0.475,11.367
	c0.356,0.71,0.947,3.315,0.83,4.262c-0.119,0.948-0.592,3.315,1.304,4.145c1.894,0.829,1.538,5.21,0,5.802
	c-1.541,0.592-4.856,1.066-3.79,3.552c1.065,2.487,1.895,4.855,1.656,7.222c-0.235,2.369-2.941,5.922-5.643,6.16
	c-2.703,0.236-5.014,1.3-6.789,0.234c-1.775-1.065-0.798-3.909,1.065-5.683c2.32-2.21,2.646-5.034,0.073-2.921
	c-2.635,2.165-4.135,4.951-14.241,7.089c-6.515,1.378-10.864,2.309-15.389,3.567c-5.06,1.408-9.768,2.213-9.558,2.132
	c4.974-1.933,8.925-3.51,12.789-4.418c8.684-2.042,11.515-5.187,17.499-7.107C158.939,164.022,159.327,159.701,159.327,159.701z"/>
<path fill="#998675" d="M179.221,105.502c0.522,0.676,3.686-0.261,5.802,0.711c2.893,1.328,4.973,0.241,7.341-0.768
	c2.367-1.009,6.157-7.403,6.749-9.179c0.593-1.776,4.381-7.933,4.499-9.354c0.119-1.421,2.959-4.144,4.737-4.144
	c1.775,0,6.354-0.75,7.894,0.197c1.54,0.947,5.367,1.066,6.906,0.947c1.54-0.118,5.093,0.987,5.093,0.987s-2.843-3.395-6.158-3.75
	c-3.314-0.355-6.867-2.052-9.591-1.934c-2.723,0.119-5.209,0.711-5.209,0.711s-0.713-3.079-2.961-4.973
	c-2.25-1.895-4.381-4.145-4.381-4.145s2.486,3.671,2.604,7.104s-1.935,6.946-5.209,10.848c-3.229,3.844-3.553,7.742-6.039,8.926
	c-2.487,1.185-4.263,1.303-6.868,2.961C181.824,102.305,178.697,104.825,179.221,105.502z"/>
<path fill="#C7B299" d="M185.615,120.658c-2.138-0.713-2.843,5.564-3.199,7.223c-0.354,1.658-2.485,6.275-2.248,8.644
	c0.236,2.368-1.695,6.565-0.02,8.373c1.676,1.809,3.097,5.006,3.097,6.545c0,1.539,1.658,5.683,1.421,7.46
	c-0.236,1.775,0.237,5.21-0.828,6.039s-1.422,4.381,0,6.157c1.42,1.776,2.841,3.075,3.907,2.781
	c1.065-0.294-1.896-2.544-2.723-3.609c-0.83-1.065-1.303-2.96,0.235-4.736c1.541-1.776,1.305-4.855,0.947-7.696
	c-0.355-2.843,0.103-4.026,1.769-3.316c1.666,0.71,2.613-1.065,0.956-2.487c-1.657-1.421-2.96-5.564-3.434-8.999
	c-0.474-3.433,0.709-6.63,1.183-9.354C187.152,130.959,187.035,121.132,185.615,120.658z"/>
<path fill="#C7B299" d="M132.02,172.993c0,0,2.916-3.197,3.232-12.432c0.093-2.699-0.668-7.026,0.636-10.814
	c1.303-3.79,0.317-8.832,0.585-11.801c0.463-5.186,0.352-11.616-0.359-13.748c-0.71-2.131-2.953-5.316-2.953-5.316
	s2.484,1.469,3.406,3.197c1.381,2.589,1.212,5.565,1.212,5.565s1.776-4.051,2.841-8.763c0.646-2.856,0.593-5.328,0-7.933
	c-0.592-2.605-2.368-3.079-3.315-3.552c-0.947-0.474,0.357-1.776,2.251-2.013c1.893-0.237,1.183-2.368,0.828-4.026
	c-0.355-1.658-0.118-5.439-0.828-9.465c-0.711-4.026-2.764-7.665-2.883-10.506c-0.118-2.842-3.039-5.131-4.578-5.249
	c-1.539-0.118-3.592-1.224-4.894-2.408c-1.303-1.184-0.908-2.868-4.224-2.868c-3.315,0-4.973-1.604-7.341-1.604
	c-2.369,0-5.564,0-5.564,0s8.406-1.119,10.656-0.053c2.249,1.066,6.157-0.737,7.933-0.5c1.776,0.236,7.696,1.497,10.895,0.904
	c1.331-0.247,4.955-3.378,5.447-5.912c1.418-7.341-2.217-14.708-0.475-16.218c1.776-1.539,2.134,5.273,2.43,7.343
	c0.886,6.157,1.596,11.487-0.359,18.212c-1.074,3.693-0.686,7.813,0.298,11.161c0.661,2.249,2.429,5.604,3.315,9.707
	c0.58,2.685,1.894,7.695,2.959,10.773c1.065,3.078,1.065,6.393,0,7.103c-1.065,0.71-1.658,11.248-0.592,15.037
	c1.066,3.789,1.657,9.236,0.71,12.432c-0.946,3.197-5.327,11.367-5.208,13.617c0.117,2.25,0.591,6.157,0.117,7.46
	c-0.473,1.302-2.013,2.96-3.079,3.908c-1.064,0.947-2.226,4.071-3.315,4.677c-1.089,0.607-2.476,1.622-5.328,2.463
	C134.417,171.979,132.02,172.993,132.02,172.993z"/>
<path fill="#C7B299" d="M91.48,121.25c0,0,3.197-2.841,4.5-4.617c1.303-1.777,3.258-4.503,6.453-5.451
	c3.199-0.947,8.042-1.65,10.291-1.65c2.251,0,6.345,0.115,9.067-0.003c2.725-0.119,7.46-0.474,9.353-1.066
	c1.896-0.592,4.462-0.987,4.462-0.987s2.525,1.58,3.118,2.29c0.591,0.71,0.829,2.013,0.829,2.013s-5.211,0.118-7.342,0.592
	c-2.132,0.474-8.408,0.355-10.184,0.237c-1.775-0.119-10.065,0.118-12.906,0.354c-2.842,0.237-6.323,0.553-8.762,2.957
	C98.884,117.374,91.48,121.25,91.48,121.25z"/>
<path fill="#998675" d="M124.517,34.577c0,0,3.236,1.973,5.367,3.788c2.132,1.816,4.033,3.158,6.004,3.869
	c1.968,0.71,4.575,1.104,5.915,2.052c1.342,0.948,1.342,2.21,1.342,2.21s0.869-1.42,0-2.763c-0.867-1.342-5.209-2.605-6.788-3.197
	c-1.578-0.592-5.604-2.881-7.025-3.829C127.91,35.76,124.517,34.577,124.517,34.577z"/>
<path fill="#998675" d="M209.354,83.656c0,0-1.479,4.262-2.309,5.447c-0.829,1.184-3.211,4.781-4.158,6.794
	c-0.947,2.013-2.717,6.164-3.426,7.112c-0.711,0.947-2.721,2.726-2.721,2.726s4.857-3.313,6.336-6.274
	c1.481-2.96,5.509-7.103,6.219-8.76c0.711-1.658,4.145-6.809,4.145-6.809l-2.191-0.296L209.354,83.656z"/>
<path fill="#998675" d="M196.981,115.566c-1.137-0.354-4.026,3.079-4.382,5.684c-0.354,2.605-0.236,10.302-0.71,13.262
	c-0.474,2.96,0.118,10.107,0.474,12.75c0.355,2.642,1.303,5.721,1.303,8.918c0,3.197,0.592,6.749,1.657,8.762
	c1.066,2.012,5.21,4.381,6.158,6.038c0.946,1.658,2.012,2.605,3.195,1.894c1.186-0.71-2.131-4.262-3.195-4.735
	c-1.067-0.474-4.618-4.381-5.092-6.158c-0.474-1.776-1.036-5.266-1.036-8.817c0-3.553-1.096-7.997-1.215-13.739
	c-0.072-3.506,0.111-11.375,0.474-15.097C195.145,118.881,198.877,116.159,196.981,115.566z"/>
<path fill="#736357" d="M139.357,167.744c-0.82,0.097-0.396-0.71-0.791-1.736c-0.393-1.026-0.157-4.34,0-6.235
	c0.159-1.895-0.273-4.184-0.216-5.999c0.059-1.816,1.085-4.184,1.007-6.078c-0.081-1.894-0.081-4.815,0.473-5.684
	c0.553-0.868,1.105-0.079,1.025,1.105c-0.078,1.184-0.078,4.026-0.395,5.763c-0.314,1.736-1.003,4.657-0.856,6.157
	c0.146,1.499,0.463,4.814,0.463,6.078c0,1.263-0.847,3.079-0.463,4.263C139.987,166.56,140.699,167.586,139.357,167.744z"/>
<path fill="#998675" d="M199.981,159.772c-0.667,0.533,1.262,1.5,1.736,2.052c0.474,0.553,2.368,2.92,4.183,4.184
	c1.815,1.263,4.499,4.106,6.947,4.974c2.447,0.868,6.552,1.661,8.052,2.133c1.5,0.472,4.816,1.849,4.816,0.765
	c0-1.083-3.475-1.635-4.975-2.188c-1.499-0.553-6.546-1.578-7.969-2.368c-1.424-0.789-4.661-3.395-6.557-4.894
	C204.322,162.929,200.77,159.141,199.981,159.772z"/>
<path fill="#736357" d="M134.778,73.809c-0.517,0.441,0.947,1.104,1.735,1.815c0.79,0.71,2.448,2.053,3.041,3.473
	c0.592,1.421,1.934,4.262,2.248,5.525c0.316,1.263,0.711,3.473,0.947,4.736c0.237,1.264,0.554,3.631,0.869,4.816
	c0.316,1.184,1.027,4.578,1.184,6.157c0.158,1.579-0.077,3.315,0.475,3.789c0.553,0.474,0.789-0.79,0.553-3.552
	c-0.238-2.763-0.632-5.684-1.264-6.947c-0.632-1.263-0.947-5.684-1.343-7.499c-0.394-1.815-1.815-5.525-2.368-7.262
	c-0.552-1.737-2.92-3.868-3.629-4.42C136.514,73.887,135.33,73.335,134.778,73.809z"/>
<path fill="#998675" d="M149.412,165.376l3.048-0.869c0,0,0.71-2.902,0.71-4.806c0-1.902,0.555-4.745,0.946-7.113
	c0.396-2.369,1.265-5.052,2.054-7.894c0.789-2.842,1.579-5.763,1.579-8.447c0-2.683,0.868-5.683,0-6.078
	c-0.869-0.395-1.026,3.078-1.026,4.421c0,1.342-0.395,5.13-0.789,6.63c-0.395,1.5-2.053,4.42-2.764,6.868
	c-0.71,2.447-1.42,6.789-1.341,8.131c0.079,1.341-1.659,5.289-2.29,6.63c-0.631,1.342-5.784,5.605-5.784,5.605
	S148.677,165.714,149.412,165.376z"/>
<path fill="#998675" d="M153.97,163.895c0,0,1.175-0.729,1.807-0.886c0.63-0.158,1.97-1.733,1.97-1.733s0.16-1.108-0.075-3.556
	c-0.237-2.447,0.456-4.816,0.464-6.789c0.01-1.972,1.025-5.366,1.465-8.367c0.439-2.999,1.859-7.894,1.938-10.104
	c0.08-2.211,0.396-5.051-0.552-5.051c-0.947,0-0.868,0.869-0.868,3.315c0,2.447-1.183,8.657-1.578,10.92
	c-0.395,2.262-2.289,7.473-2.448,9.841c-0.157,2.368-0.553,5.21-0.71,6.631C155.223,159.535,153.97,163.895,153.97,163.895z"/>
<path fill="#998675" d="M157.078,127.408c-1.004,0.076-0.77-1.422-1.007-2.842c-0.236-1.421-0.355-6.401,0-8.647
	c0.355-2.246,1.079-6.036,0.392-8.048c-0.687-2.013-2.228-5.979-2.76-7.636c-0.533-1.659-1.48-5.921-1.953-7.638
	c-0.475-1.717-2.902-8.348-3.434-9.769c-0.533-1.42-1.185-4.677-1.066-6.808c0.117-2.131,0.237-3.67,0.83-3.788
	c0.591-0.119,0.649,0.651,0.709,3.434c0.059,2.782,1.126,7.756,1.895,9.294c0.771,1.54,2.191,6.039,2.96,8.407
	c0.77,2.369,1.954,7.875,2.725,9.473c0.769,1.599,1.521,4.079,1.767,6.184c0.246,2.104,0.123,8.084-0.171,9.801
	c-0.293,1.717-0.061,5.21,0,6.453C158.025,126.52,157.848,127.349,157.078,127.408z"/>
<path fill="#998675" d="M161.104,124.198c-0.864,0.01-0.829-1.29-0.651-3.244c0.178-1.954,0.711-5.032,0.651-7.045
	c-0.059-2.013,0.048-5.742-0.745-7.874c-0.794-2.131-2.156-5.921-2.807-7.46c-0.651-1.539-1.775-3.197-1.421-4.677
	c0.354-1.48,1.066,0.119,1.658,1.362c0.592,1.243,1.953,5.802,2.485,6.69c0.534,0.888,1.718,3.966,2.013,5.683
	c0.296,1.717,0.664,4.026,1.008,5.447c0.343,1.42,0.295,5.743,0.059,7.045C163.116,121.428,162.23,124.186,161.104,124.198z"/>
<path fill="#FFFFFF" d="M185.496,143.036"/>
<path fill="#998675" d="M157.906,78.624c-0.786-0.061-0.395,3.157-0.316,4.183c0.081,1.027,1.026,4.497,1.423,6.117
	c0.396,1.62,1.263,4.813,1.815,5.742c0.552,0.93,2.92,4.718,3.946,6.14c1.026,1.421,5.684,4.893,6.631,5.367
	c0.947,0.474,4.003,0.998,4.962,0.539s-0.383-1.328-2.277-1.722c-1.895-0.395-5.223-2.376-7.861-5.175
	c-2.639-2.798-4.217-5.797-5.243-8.718c-1.026-2.921-2.053-6.473-2.21-8.29C158.617,80.992,158.933,78.702,157.906,78.624z"/>
<path fill="#998675" d="M161.222,98.595c-0.926,0.214,0.087,3.078,0.715,3.473c0.628,0.395,1.64,3.954,1.961,5.056
	c0.324,1.102,1.035,5.995,1.587,6.785c0.553,0.79,0.971,1.815,2.499,0.868c1.527-0.947-0.387-3.867-0.93-5.446
	c-0.542-1.579-1.331-3.673-1.964-5.112C164.459,102.778,162.249,98.358,161.222,98.595z"/>
<path fill="#998675" d="M171.09,109.022c-1.16,0.253-0.71,3.072,0.711,4.097c1.42,1.027,4.242,4.106,4.885,6.395
	c0.641,2.289,0.064,8.841-0.318,11.604c-0.383,2.763-1.016,8.513-0.778,10.689c0.236,2.177,0.082,5.414,1.384,6.361
	c1.301,0.947,2.405,5.919,1.615,7.735c-0.788,1.816-3.551,4.658-2.763,6.236c0.79,1.579,1.398,5.288,0.542,7.499
	c-0.857,2.21-1.488,4.084-3.778,4.647c-2.288,0.562-5.288,1.748-6.866,2.616c-1.58,0.868-0.766,2.683,2.261,2.21
	c3.026-0.474,4.764-3.079,6.975-3.553c2.21-0.473,4.342-2.446,4.501-4.894c0.156-2.447-1.343-6.393,0-8.919
	c1.341-2.527,1.496-5.525,1.182-8.289c-0.315-2.764-1.264-5.921-2.13-7.263c-0.87-1.341-1.58-5.209-0.948-7.815
	c0.633-2.605,1.738-9.322,1.896-12.436c0.155-3.114-0.16-7.061-1.344-9.272C176.931,114.461,173.221,108.555,171.09,109.022z"/>
<path fill="#998675" d="M178.351,107.673c-0.895,0.526-0.71,1.815,0.476,2.446c1.183,0.632,3.314,0.79,5.13,1.185
	c1.815,0.395,6.868,0.631,8.841,0c1.974-0.631,5.684-1.081,8.052-2.553c2.368-1.472,5.921-4.393,6.79-5.341
	c0.867-0.947,1.025-1.815-0.791-0.789c-1.816,1.026-4.973,4.815-7.262,5.29c-2.289,0.473-7.662,1.972-9.79,1.814
	c-2.13-0.158-5.682-0.527-7.419-0.974C180.641,108.304,179.693,106.883,178.351,107.673z"/>
<path fill="#998675" d="M179.811,112.073c-0.643,0.097-1.538,1.185-0.591,1.835c0.947,0.651,1.361,1.657,2.013,3.138
	c0.651,1.479,1.835,2.308,3.138,1.717c1.302-0.592-1.184-2.357-1.599-3.606C182.358,113.909,180.996,111.896,179.811,112.073z"/>
<path fill="#998675" d="M123.568,178.248c0,0,4.579-1.268,6.157-1.347c1.58-0.079,6.474-1.184,7.895-1.342
	c1.421-0.158,7.23-2.129,9.337-2.445c2.11-0.318,6.528-1.818,8.107-1.739c1.58,0.079,2.211,0.474,2.369,1.42
	c0.158,0.947-5.762,3-8.447,2.842c-2.683-0.158-8.523,1.895-11.841,1.974C133.831,177.69,123.568,178.248,123.568,178.248z"/>
<path fill="#C7B299" d="M160.591,175.164c-0.623-0.873-3.315-0.079-4.419,0.71c-1.107,0.79-3.554,1.905-4.738,2.374
	c-1.184,0.468-1.815,1.968-1.342,2.836c0.474,0.868,1.499,1.341,2.131,0c0.632-1.342,3.474-2.435,4.5-2.678
	C157.749,178.164,161.38,176.27,160.591,175.164z"/>
<path fill="#998675" d="M189.403,156.851c-1.036,0.069-1.5,1.656-1.027,2.565c0.475,0.909,1.157,3.672,0.422,4.698
	c-0.737,1.025-1.025,3.868-0.604,4.735c0.42,0.869,3.342,2.132,3.895,3.316c0.551,1.184,3.628,2.685,4.419,4.026
	c0.789,1.343,1.736,2.368,2.762,1.578c1.027-0.79-1.499-3.117-2.367-3.847c-0.867-0.73-3.552-3.177-4.026-4.125
	c-0.473-0.947-2.684-1.657-2.209-3.315c0.474-1.657,0.709-3.394,0.552-5.526C191.061,158.824,190.587,156.772,189.403,156.851z"/>
<path fill="#736357" d="M140.864,137.116c-1.293,0-1.019-2.447,0-4.499c1.018-2.053,1.493-8.604,1.729-10.657
	c0.236-2.053,1.42-6.868,1.341-8.842c-0.078-1.973-1.025-3.274-1.577-4.124c-0.555-0.849-0.159-2.814,1.025-1.871
	c1.184,0.944,1.656,4.074,1.895,5.312c0.236,1.237-0.711,7.078-0.947,8.814c-0.237,1.736-1.026,6.553-1.026,8.367
	C143.304,131.433,142.213,137.116,140.864,137.116z"/>
<path fill="#998675" d="M184.744,126.52c-0.505-0.25-1.972,5.209-1.972,6.453c0,1.243-1.362,4.322-1.421,6.097
	c-0.061,1.776-0.533,4.737,0.828,6.69c1.362,1.954,2.405,3.256,2.564,4.559c0.159,1.302,0.159,1.658,1.047,1.184
	c0.888-0.474-0.71-5.032-1.48-5.92c-0.769-0.888-1.658-3.789-1.006-6.749C183.956,135.873,186.303,127.289,184.744,126.52z"/>
<path fill="#998675" d="M155.243,90.346c-0.665,0.31-0.651-1.208-1.127-2.173c-0.473-0.965-1.132-2.623-1.365-4.103
	c-0.231-1.48-1.771-4.973-1.771-7.282c0-2.309-1.008-8.466-1.008-10.242c0-1.776-0.945-5.507-1.064-7.459
	c-0.119-1.954-0.415-8.467-0.889-9.947c-0.474-1.48-0.118-5.447,0-6.75c0.118-1.303,2.367-3.493,2.367-5.743
	c0-2.25,0.534-4.381,0.179-6.334c-0.354-1.953-1.244-6.039-1.184-7.993c0.058-1.953-0.236-3.375,0.415-3.966
	c0.65-0.592,0.532,0.947,0.474,2.19c-0.06,1.244-0.179,3.138,0.177,4.973c0.355,1.836,1.361,6.453,1.361,8.525
	c0,2.072-0.415,4.756-1.185,6.493c-0.768,1.737-1.361,3.335-1.303,5.585c0.061,2.25,0.297,4.854,0.534,6.275
	c0.236,1.421,0,5.21,0.295,6.867c0.297,1.658,1.541,8.585,1.895,11.13c0.355,2.546,2.25,11.545,2.783,13.794
	C155.36,86.439,156.131,89.931,155.243,90.346z"/>
<path fill="#998675" d="M185.496,113.909c-0.545,1.09,1.421,1.606,3.197,1.631c1.775,0.026,4.973-0.365,7.223-1.354
	c2.25-0.988,5.445-1.936,7.814-3.593c2.367-1.658,5.328-4.152,7.46-4.859c2.13-0.707,5.446-1.735,7.814-1.516
	c2.367,0.218,4.144,0.906,4.144-0.03c0-0.936-5.21-1.647-7.223-1.173c-2.012,0.474-3.703,0.517-6.767,2.094
	c-3.527,1.816-8.194,5.672-10.839,6.584c-2.642,0.913-6.431,2.215-8.089,2.215C188.574,113.909,186.205,112.487,185.496,113.909z"/>
<path fill="#998675" d="M206.138,112.062c-0.676-0.714-4.105,3.582-4.972,5.083c-0.869,1.5-3.475,7.499-3.869,10.736
	c-0.395,3.236-0.868,10.42-0.71,13.42c0.156,2.999,0.315,9.708,0.947,11.918c0.632,2.211,0.632,4.106,1.578,4.422
	c0.947,0.314,0.789-1.659,0-4.973c-0.79-3.316-1.029-10.579-0.792-14.288c0.239-3.71,0.239-9.766,0.792-11.869
	c0.553-2.103,1.736-5.587,3.395-7.555C204.165,116.987,207.006,112.979,206.138,112.062z"/>
<path fill="#998675" d="M69.181,137.037c0,0,4.892-1.026,6.632-2.842c1.736-1.815,1.736-4.894,3.472-6.315
	c1.737-1.421,3.474-1.816,5.685-2.132c2.209-0.315,7.815-2.052,9.236-3.157c1.42-1.104,6.545-5.295,9.705-6.673
	c3.16-1.377,9.475-1.848,12.713-1.731c3.236,0.117,8.842,0.007,12.078-0.017c3.236-0.024,6.866-0.103,8.209-0.261
	c1.341-0.158,2.645-0.395,2.645-0.395s0.196,2.447-0.357,4.895c-0.552,2.448-0.852,4.104-0.852,4.104s-0.963-2.921-2.384-4.499
	c-1.421-1.579-7.972-1.902-10.497-2.096c-2.527-0.194-12.238-0.589-17.29,0.517c-5.051,1.105-6.394,1.658-9.156,3.473
	c-2.764,1.816-3.157,3.237-6.632,4.658c-3.473,1.42-11.444,2.605-12.629,4.578c-1.184,1.974-1.184,4.105-3.236,5.764
	C74.47,136.563,69.181,137.037,69.181,137.037z"/>
<path fill="#998675" d="M87.752,137.767c0,0,1.42-1.895,2.071-2.901c0.651-1.006,2.013-3.73,3.671-3.966
	c1.658-0.237,4.145-1.243,5.625-2.249c1.479-1.006,2.544-3.019,3.847-3.849c1.304-0.829,2.486-2.664,2.961-3.552
	c0.474-0.888,2.428-3.434,2.428-3.434s2.9-0.651,4.321-0.71c1.421-0.059,2.486,0,2.486,0s-3.435,0.947-5.091,2.486
	c-1.658,1.54-4.915,3.967-6.572,5.684c-1.657,1.717-3.73,3.984-5.211,4.863c-1.479,0.879-5.15,1.472-6.099,2.596
	C91.243,133.86,87.752,137.767,87.752,137.767z"/>
<path fill="#998675" d="M126.647,67.257h7.578c0,0,1.974-0.592,3.868-1.619c1.894-1.026,5.438-2.545,5.438-2.545
	s-1.427,2.199-3.235,3.542c-1.808,1.341-5.676,2.127-7.255,1.732C131.463,67.973,126.647,67.257,126.647,67.257z"/>
<path fill="#998675" d="M189.796,117.698c-1.206-0.194-1.34,1.605-1.162,2.903c0.177,1.3,0.621,6.569,0.548,8.286
	c-0.075,1.717-1.199,8.422-1.436,10.219c-0.236,1.8,0.237,4.542,0.65,6.545c0.415,2.004,0.963,3.247,1.4,3.661
	c0.436,0.415,0.85-1.953,0.436-4.026c-0.415-2.072-0.813-5.683-0.436-8.407c0.376-2.724,0.673-5.08,1.028-8.224
	C191.179,125.513,190.898,117.876,189.796,117.698z"/>
<path fill="#998675" d="M199.842,162.692c-0.441,0.362,1.245,2.684,2.822,3.789c1.579,1.105,3.633,4.184,5.052,5.21
	c1.421,1.026,4.264,2.447,6.315,3.473c2.053,1.026,4.579,0.553,5.685,0.316c1.105-0.237-2.21-1.224-3.789-1.559
	c-1.579-0.336-5.843-2.152-7.894-3.967C205.981,168.139,200.809,161.903,199.842,162.692z"/>
<path fill="#998675" d="M189.244,174.811c-0.793,0.448-0.319,0.986,0.552,1.854c0.871,0.87,2.607,2.128,3.396,2.524
	c0.791,0.397,1.817,1.502,2.844,1.028c1.024-0.473-1.421-1.727-2.922-2.679C191.613,176.585,190.429,174.141,189.244,174.811z"/>
<path fill="#998675" d="M209.611,101.2c0.14,0.979,2.131,0.079,3.828-0.631c1.697-0.71,3.118-2.052,5.25-2.526
	c2.132-0.473,6.867-1.499,8.288-2.92c1.422-1.421,3.552-3.71,5.843-4.579c2.289-0.868,5.683-1.973,6.788-3.868
	c0,0-0.791-0.553-2.212-0.631c0,0-2.526,2.462-4.972,3.48c-2.448,1.019-5.211,3.387-6.632,4.729
	c-1.42,1.342-3.553,0.961-6.235,1.704c-2.684,0.742-6.235,2.085-7.499,2.953C210.795,99.779,209.452,100.094,209.611,101.2z"/>
<path fill="#998675" d="M223.741,106.711c-1.092,0.17-0.485,2.146,0.861,3.408c1.349,1.263,2.611,1.263,3.639,0.711
	c1.026-0.553,2.92-1.58,5.052-1.184c2.132,0.395,2.998,2.048,2.998,2.048s0.158-2.323-1.973-2.699
	c-2.132-0.375-4.5-0.789-6.077,0.208c-1.579,0.996-2.525,0.128-3-0.662C224.768,107.752,224.846,106.539,223.741,106.711z"/>
<path fill="#998675" d="M226.898,81.623l2.131,1.973c0,0,3.475-0.316,5.605,0c2.131,0.316,6.394,0.475,8.131,1.343
	c1.735,0.868,4.499-0.237,5.92-0.553c1.421-0.315,6.473-1.263,8.209-0.79c1.737,0.474,3.553,1.105,3.553,1.105
	s-3.552-2.21-6.788-2.052c-3.238,0.157-7.895,1.421-10.973,0.947c-3.078-0.474-5.921-1.342-8.131-1.342
	C232.346,82.254,226.898,81.623,226.898,81.623z"/>
<path fill="#998675" d="M191.43,95.958c-1.79,1.532-2.895,1.69-3.685,2.005c-0.789,0.316-1.579,0.622-1.579,0.622
	s2.764-4.427,3.789-6.984c1.025-2.558,3.314-7.136,4.975-9.346c1.657-2.211,5.919-6.71,5.919-6.71l0.473,1.263
	c0,0-4.734,4.263-5.761,6.315c-1.027,2.053-3.078,6.631-3.472,8.052C191.692,92.595,191.43,95.958,191.43,95.958z"/>
<path fill="#998675" d="M204.086,72.218c-0.401,0.672-2.92-2.04-5.053-4.172c-2.131-2.131-3.71-4.421-3.867-7.499
	c-0.157-3.079-0.08-5.525-0.79-7.578c-0.71-2.052,0.704-4.42,2.364-6.946c1.661-2.526,4.426-4.421,5.294-5.605
	c0.867-1.184,1.341-3.395,1.026-4.184c-0.317-0.79,0.789-0.789,1.341,0.316c0.553,1.105,0.237,2.369,1.499,2.605
	c1.264,0.237,0.237,1.895-1.814,2.368c-2.052,0.474-5.209,3.315-6.079,5.131c-0.869,1.815-2.367,3.236-2.211,5.368
	c0.159,2.131,1.423,3.789,1.501,5.92c0.078,2.131,0.936,6.158,2.481,7.815C201.321,67.414,205.075,70.557,204.086,72.218z"/>
<path fill="#998675" d="M204.275,100.41c0,0,3.185-4.736,4.368-6.216c1.184-1.48,3.198-3.704,4.085-5.433
	c0.89-1.73,2.605-4.69,2.605-4.69s1.185,0.355,1.775,0.414c0.594,0.059,0.594,0.059,0.594,0.059s-1.954,3.331-3.139,4.981
	c-1.184,1.65-3.553,3.542-4.559,5.141C209,96.266,204.275,100.41,204.275,100.41z"/>
<path fill="#998675" d="M142.929,164.527c-0.575,0.255-1.126,0.237-1.421-1.243c-0.296-1.48,0.651-2.9,0.295-4.677
	c-0.355-1.776-0.885-5.091-0.353-6.69c0.531-1.599,0.886-4.42,0.886-6.266c0-1.845,0.533-5.989,0.947-8.179
	c0.414-2.191,1.694-9,2.032-11.9c0.336-2.901,2.003-10.856,1.642-13.51c-0.359-2.653,1.005-6.738,2.455-7.33
	c1.45-0.592,2.396,1.482,2.1,4.471c-0.295,2.989-1.112,10.389-1.028,12.047c0.082,1.658,0.663,8.17,1.084,11.071
	c0.42,2.901-0.646,8.466-1.534,10.183c-0.888,1.717-3.789,8.525-4.264,11.544c-0.473,3.019,0.534,3.907,0.179,5.684
	C145.592,161.508,143.993,164.054,142.929,164.527z"/>
<path fill="#C7B299" d="M146.957,142.8c-0.482-0.118,0.056-2.684,0.45-3.947c0.396-1.263,1.343-3.946,1.343-6.157
	c0-2.21,0.475-7.105,0-8.92c-0.474-1.815,0.105-5.526,0.209-7.5c0.106-1.973,0.027-6.236,0.896-7.025
	c0.868-0.79,0.633,0.631,0.474,1.579c-0.157,0.947-0.553,6.709-0.553,8.051c0,1.342-0.316,4.104,0.156,6.394
	c0.475,2.289,0.08,5.526-0.314,8.525c-0.394,3-1.104,5.132-1.579,6.789C147.566,142.248,148.246,143.115,146.957,142.8z"/>
<path fill="#C7B299" d="M147.236,121.507c-0.565-0.039-0.309,2.543-0.47,3.768c-0.159,1.226-1.423,8.432-1.74,9.759
	c-0.316,1.328-1.404,5.504-1.271,6.608c0.135,1.104,0.287,3.187-0.011,5.085c-0.297,1.898-1.061,4.174-1.09,5.881
	c-0.03,1.706,0.034,3.098,0.412,4.614c0.381,1.517,0.506,3.362-0.064,4.304c-0.567,0.943-0.14,1.259,0.752,0.69
	c0.894-0.57,1.146-2.954,0.766-4.544c-0.379-1.588-0.696-4.37-0.505-5.635c0.189-1.264,0.589-3.613,0.926-4.777
	c0.338-1.165,0.471-4.167,0.372-5.258c-0.097-1.09,0.586-4.313,1.13-6.336c0.542-2.023,0.347-4.805,0.793-7.46
	C147.682,125.553,148.511,121.594,147.236,121.507z"/>
<path fill="#998675" d="M134.67,71.253c-0.446,0.565,2.898,2.022,4.414,2.908c1.518,0.885,3.287,4.108,3.792,5.499
	c0.507,1.39,1.202,4.235,1.581,6.132c0.379,1.896,0.569,4.993,1.202,6.511c0.631,1.517,1.637,5.437,1.577,6.7
	c-0.061,1.265,0.507,3.549,1.141,3.86c0.632,0.312,2.654-0.636,1.58-3.797c-1.074-3.161-1.776-6.574-2.721-9.039
	c-0.946-2.465-2.21-7.838-2.716-9.925c-0.505-2.085-0.253-3.729,0.19-5.815c0.443-2.086,1.959-6.069,2.087-7.712
	c0.127-1.644-0.879-0.949-1.483,0.253c-0.604,1.201-1.109,3.287-2.311,4.298c-1.201,1.011-1.973,0.695-3.009,0.506
	C138.957,71.442,135.671,69.989,134.67,71.253z"/>
<path fill="#998675" d="M138.136,79.471c-0.899,0.1-0.694,2.718,0,4.172c0.696,1.454,1.896,5.31,2.341,6.954
	c0.441,1.644,0.802,6.573,0.748,7.711c-0.055,1.138,0.388,3.029,0.831,4.612c0.441,1.583,0.947,1.768,1.392,0.822
	c0.442-0.946-0.764-4.17-0.793-5.561c-0.03-1.391-0.599-5.941-0.727-7.396c-0.126-1.454-0.928-4.172-1.632-5.942
	C139.59,83.073,139.274,79.344,138.136,79.471z"/>
<path fill="#998675" d="M140.77,108.443c-0.549,0.129,0.149,1.251,0.455,1.679c0.305,0.428,0.768,2.393,0.811,3.391
	c0.041,0.998-0.169,3.696-0.423,4.749c-0.253,1.054-1.421,6.701-2.058,8.808c-0.638,2.107-1.65,5.057-1.776,6.11
	c-0.127,1.053-0.801,6.025-0.59,7.122c0.21,1.097,0.253,5.222,0.253,6.425c0,1.203-0.843,3.395-1.18,4.827
	c-0.337,1.433-0.59,3.624-0.337,4.846c0.253,1.222,0.379,5.268,0.085,7.122c-0.295,1.854-0.844,4.972-0.675,5.646
	c0.168,0.675,0.337,0.885,0.969,0.379c0.632-0.506,0.675-2.696,0.675-3.877c0-1.18,0.801-5.142,0.506-6.743
	c-0.296-1.601-0.506-5.267,0-7.123c0.505-1.854,1.32-3.709,1.188-5.52c-0.135-1.812-0.246-7.162,0-9.249
	c0.245-2.087,0.835-5.262,1.551-6.898c0.718-1.636,1.096-5.344,1.35-7.325c0.252-1.981,1.223-5.31,1.306-7.123
	c0.085-1.812,0.109-3.203-0.43-4.467C141.91,109.96,141.485,108.276,140.77,108.443z"/>
<path fill="#998675" d="M127.769,70.115c-0.528,0.218-0.632,1.361,0,2.102c0.632,0.742,2.782,2.069,3.793,2.576
	c1.013,0.505,2.087-0.632,1.519-1.518c-0.57-0.885-1.014-2.212-2.023-2.465C130.046,70.558,128.845,69.672,127.769,70.115z"/>
<path fill="#736357" d="M129.224,71.105c-0.53,0.147-0.296,0.761,0.506,1.35c0.8,0.589,0.969,0.967,1.517,0.63
	C131.795,72.75,129.98,70.895,129.224,71.105z"/>
<path fill="#736357" d="M142.448,73.212c-0.938,0.231-3.807-1.365-4.375-1.062c-0.569,0.303,1.276,1.009,2.188,1.478
	c0.909,0.469,1.695,1.796,2.188,2.555c0.493,0.758,1.105-0.509,1.083-1.266c-0.022-0.757,1.179-3.096,0.484-3.223
	C143.319,71.569,143.473,72.96,142.448,73.212z"/>
<path fill="#998675" d="M144.268,171.072c0,0,4.568-2.258,5.665-2.617c1.099-0.36,5.461-2.256,6.726-2.825
	c1.264-0.569,3.033-2.908,3.602-4.235c0.569-1.328,0.633-6.448,1.012-8.091c0.38-1.644,1.39-5.879,1.581-8.091
	c0.189-2.212,0.948-8.661,1.327-9.734c0.379-1.075,1.502-4.552,1.731-5.942c0.228-1.391,0.859-5.41,1.303-7.541
	c0.442-2.13,1.454-3.757,2.592-3.039c1.137,0.719,0.316,2.425,0.316,3.562c0,1.138,0.125,2.802,0.694,3.424
	c0.569,0.621,1.2,2.271,1.2,4.196c0,1.925-0.3,12.671-0.781,15.011c-0.482,2.338-0.482,5.331-0.419,6.554
	c0.064,1.221-0.506,3.387-0.885,5.97c-0.379,2.583-0.695,6.566-0.695,7.894c0,1.327-1.518,3.403-2.403,4.261
	c-0.884,0.859-3.475,2.439-4.677,2.124c-1.202-0.316-1.455-1.391-0.507-2.403c0.95-1.011,1.834-2.212,2.467-3.603
	c0.632-1.391,0.569-3.104-0.854-3.322c-1.423-0.217-3.318,2.122-4.584,3.259c-1.264,1.138-3.35,1.857-5.309,2.572
	C151.41,169.17,144.268,171.072,144.268,171.072z"/>
<path fill="#C7B299" d="M163.898,161.508c-0.343,0.711-0.703-1.105-0.623-2.447c0.079-1.341,1.16-7.735,1.014-9.156
	c-0.146-1.421-0.327-5.526,0-7.421c0.329-1.894,2.224-9.551,2.46-11.604c0.236-2.052,0.022-6.079,1.235-6.63
	c1.212-0.552,0.157,3.473,0,4.894c-0.159,1.421-0.129,6.473-0.999,8.841c-0.869,2.368-1.38,8.841-1.42,10.973
	C165.523,151.088,164.744,159.767,163.898,161.508z"/>
<path fill="#C7B299" d="M163.898,168.929c-0.627,0.716-2.29,0.947-2.245,1.736c0.043,0.79,2.02,0.394,3.282-0.869
	c1.262-1.262,2.783-1.895,3.049-3.789c0.265-1.894,0.413-5.053,0.576-6.592c0.162-1.539,1.029-4.774,0.951-6.669
	c-0.078-1.895-0.078-7.185,0.553-9.157c0.632-1.973,0.474-4.578,0.474-6.315s1.264-8.21,0.395-8.605
	c-0.868-0.394-1.657,7.578-1.657,10.025c0,2.447-0.767,8.604-1.291,10.814c-0.525,2.211-1.155,9.631-0.999,11.446
	C167.144,162.772,165.075,167.586,163.898,168.929z"/>
<path fill="#C7B299" d="M183.318,104.76c-0.728-0.136-1.184-0.325-1.135-1.362c0.047-1.038,1.93-2.1,2.951-2.441
	c1.021-0.34,2.781-1.191,3.803-1.589c1.021-0.397,3.24-1.192,4.089-2.213c0.85-1.021,2.097-2.538,2.778-3.852
	c0.681-1.314,2.045-4.566,3.634-6.146c1.589-1.581,2.893-4.264,3.347-5.533c0.454-1.269,0.624-3.029,0.568-3.823
	c-0.058-0.795,0.428-1.135,0.924-0.567c0.494,0.567,0.834,2.497,1.12,3.122c0.282,0.624,1.304,0.454,1.928,0.511
	c0.626,0.057-0.896,1.022-2.236,1.646c-1.339,0.624-3.26,4.143-3.661,5.335c-0.402,1.192-2.729,5.903-3.297,6.981
	c-0.566,1.079-3.119,4.541-3.943,5.846c-0.824,1.305-1.672,3.11-3.434,3.069C188.256,103.686,186.053,105.271,183.318,104.76z"/>
<path fill="#998675" d="M183.64,102.462c-0.69,0.67-0.794,1.026,0,1.263c0.791,0.237,3.396-2.131,5.29-2.526
	c1.895-0.394,3.632-0.394,4.893-2.131c1.264-1.737,4.026-5.273,4.895-7.176c0.868-1.902,1.579-3.796,0.554-3.717
	c-1.027,0.078-2.134,4.499-3.08,5.841c-0.947,1.342-2.446,3.85-4.103,4.568c-1.66,0.72-3.476,1.115-5.211,2.062
	C185.141,101.595,184.15,101.967,183.64,102.462z"/>
<path fill="#998675" d="M97.502,116.564c0,0,3.15-3.251,4.738-4.103c1.59-0.852,3.208-1.062,4.57-1.232
	c1.362-0.171,5.164-0.965,7.321-0.795c2.156,0.17,9.647-0.124,11.237-0.317c1.59-0.193,7.378-0.535,8.286-0.819
	c0.909-0.283,1.816-0.34,2.384,0c0.568,0.341,0.739,1.192-1.021,1.59c-1.758,0.397-8.797,0.908-12.032,0.794
	c-3.234-0.113-10.386-0.227-13.224,0.114c-2.839,0.341-6.091,0.596-7.719,1.717C100.414,114.635,97.502,116.564,97.502,116.564z"/>
<path fill="#736357" d="M97.842,165.245c-0.565,0.286-2.474,2.749-3.174,4.321c-0.702,1.57-1.27,4.186-1.267,4.839
	c0.003,0.653,1.517,3.115,2.694,3.573c1.177,0.46,3.871,0.914,5.267,0.917c1.396,0.002,4.411-1.28,5.412-1.847
	c0.999-0.566,1.96-1.749,2.245-2.644c0.286-0.896,0.318-3.463,0.099-4.225c-0.22-0.761-1.469-2.421-2.694-3.359
	c-1.224-0.939-2.652-2.128-4.439-2.046C100.194,164.856,98.588,164.864,97.842,165.245z"/>
<path fill="#998675" d="M100.462,165.994c0,0,0.174,1.178,0.337,1.856c0.162,0.68-0.754,1.652-0.464,2.453
	c0.289,0.8,0.225,1.128,0.102,2.114c-0.125,0.986,0.11,2.225-0.219,2.75c-0.328,0.525-0.543,0.451-1.163,0.564
	c-0.618,0.111-1.544-0.08-1.978-0.174c-0.436-0.093-2.125-1.681-2.15-2.016c-0.025-0.334,0.085-0.989,0.085-0.989
	s-0.553,1.335-0.22,2.251c0.331,0.916,2.35,2.533,3.56,2.639c1.208,0.106,2.414,0.267,4.33-0.12c1.916-0.386,3.777-1.387,4.74-2.908
	c0.966-1.523,0.762-4.254-0.201-5.28c-0.964-1.026-2.666-2.448-3.792-2.879C102.305,165.822,100.462,165.994,100.462,165.994z"/>
<path fill="#C7B299" d="M97.211,175.291c-0.607-0.12-1.591-1.247-1.914-1.857c-0.323-0.609-0.154-1.398,0.205-2.364
	c0.362-0.966,0.894-2.304,1.304-2.85c0.408-0.546,1.131-1.231,1.331-1.601c0.198-0.371,0.636-0.305,0.985-0.496
	c0.348-0.192,0.896-0.116,0.896-0.116s0.211,1.403,0.245,1.628c0.035,0.225,0.126,0.786-0.107,1.236
	c-0.233,0.451-0.442,1.569-0.239,2.085c0.205,0.517,0.182,1.401,0.141,1.896c-0.044,0.494,0.224,1.875-0.199,2.253
	C99.438,175.487,98.007,175.448,97.211,175.291z"/>
<path fill="#736357" d="M220.002,179.731c-0.455,0.173-2.109,1.897-2.771,3.04c-0.661,1.142-1.303,3.092-1.354,3.59
	c-0.053,0.499,0.907,2.499,1.768,2.943c0.86,0.445,2.879,1.008,3.943,1.123c1.063,0.115,4.049-0.19,4.857-0.541
	c0.806-0.352,1.84-1.313,2.129-1.974c0.293-0.659,0.437-2.447-0.078-3.473c-0.273-0.544-1.217-2.002-2.075-2.817
	c-0.857-0.814-1.852-1.836-3.225-1.918C221.827,179.623,220.602,179.501,220.002,179.731z"/>
<path fill="#998675" d="M221.939,180.512c0,0,0.039,0.914,0.107,1.444c0.069,0.531-0.93,0.708-0.552,1.833
	c0.208,0.62,0.83,0.435,0.656,1.176c-0.175,0.742-0.388,2.216-0.681,2.59c-0.292,0.374-0.903,0.236-1.386,0.272
	c-0.482,0.036-1.172-0.184-1.497-0.291c-0.322-0.105-1.484-1.453-1.478-1.711c0.009-0.257,0.146-0.748,0.146-0.748
	s-0.529,0.975-0.35,1.7c0.18,0.725,1.591,2.121,2.504,2.299c0.915,0.178,2.266,0.442,3.759,0.302
	c1.493-0.141,2.853-0.458,3.71-1.543c0.857-1.083,0.617-3.523-0.034-4.384c-0.652-0.86-1.623-1.961-2.446-2.38
	C223.574,180.652,221.939,180.512,221.939,180.512z"/>
<path fill="#C7B299" d="M218.713,187.344c-0.455-0.14-1.114-1.08-1.312-1.571c-0.197-0.49-0.005-1.078,0.349-1.786
	c0.353-0.707,0.867-1.685,1.224-2.069c0.354-0.384,0.961-0.848,1.143-1.114c0.181-0.267,0.508-0.181,0.79-0.299
	c0.282-0.117,0.693-0.015,0.693-0.015s0.048,1.087,0.057,1.261c0.008,0.174-0.325,0.588-0.539,0.913
	c-0.215,0.325-0.107,1.182,0.007,1.591c0.116,0.411,0.611,0.395,0.538,0.77c-0.073,0.373-0.363,2.137-0.915,2.392
	C220.352,187.599,219.307,187.528,218.713,187.344z"/>
<path fill="#736357" d="M85.95,167.158c-1.329,0.177-4.298,1.296-5.245,2.244c-0.947,0.948-2.367,2.69-2.289,4.107
	c0.079,1.419,1.026,2.339,2.999,2.622c1.975,0.283,3.974-0.183,5.211,0.119c3.237,0.789,4.499,0.494,5.842-0.211
	c1.128-0.591,1.974-3.086,1.342-5.611c-0.632-2.526-2.25-3.232-3.75-3.389C88.56,166.881,87.442,166.961,85.95,167.158z"/>
<path fill="#998675" d="M79.049,173.743c0,0,0.709,1.027,2.998,1.342c2.29,0.316,4.06-0.527,5.131,0
	c1.764,0.868,3.764,1.065,4.697-0.355c0.623-0.946,0.968-1.645,0.977-3.131c0.01-1.486-0.7-3.224-2.122-3.539
	c-1.42-0.316-2.762-0.14-2.762-0.14s1.263,0.416,1.46,2.508c0.162,1.725-0.159,2.851-1.185,3.315
	c-1.614,0.73-3.275-0.552-5.526,0.552C81.813,174.74,80.705,174.535,79.049,173.743z"/>
<path fill="#C7B299" d="M79.049,173.209c0,0,0.473-1.913,2.21-3.27c1.099-0.859,3.789-1.563,3.789-1.563s2.948-1.197,3.244,0.704
	c0.099,0.625,1.531,2.48-0.205,3.874c-0.741,0.596-2.675-0.223-3.614-0.038c-0.525,0.104-1.332,0.835-2.188,0.827
	C80.853,173.73,79.049,173.209,79.049,173.209z"/>
<path fill="#736357" d="M251.743,176.545c-1.894,0.018-4.262,0.296-6.689-1.141c-1.186-0.703-2.486-3.042-0.77-4.72
	c0.947-0.924,3.948-3.431,6.316-3.374c2.368,0.056,4.637,0.21,7.479,1.901c2.844,1.69,4.837,1.027,6.088,3.332
	c1.254,2.304,1.815,3.616-1.707,4.654C256.837,178.854,253.952,176.526,251.743,176.545z"/>
<path fill="#C7B299" d="M244.936,171.82c0,0,1.701-1.72,3.32-2.407c1.342-0.568,3.191-0.564,4.296-0.721
	c1.104-0.158,3.711,0.67,3.711,0.67s-1.146,0.229-2.763,1.657C251.363,172.907,244.936,171.82,244.936,171.82z"/>
<path fill="#998675" d="M262.499,171.927c-0.711-0.474-2.418-0.672-4.104-1.42c-2.039-0.904-2.934,0.355-3.96,1.065
	c-1.026,0.711-2.099,0.946-3.5,1.185c-3.393,0.576-6.274-0.301-6.274-0.301s0.898,1.979,1.895,2.234
	c3.078,0.79,4.432-0.154,6.59,0.355c2.052,0.484,2.605,0.95,5.685,1.105c3.077,0.156,4.697-0.75,5.091-1.46
	C264.315,173.98,263.211,172.401,262.499,171.927z M260.093,173.823c-0.909,0.632-1.857,0.75-2.605,0.591
	c-0.749-0.157-1.224-0.118-1.855-0.591c-0.357-0.268-0.081-1.211,0.631-1.691c0.71-0.48,0.947-0.638,1.935-0.52
	c0.984,0.118,1.763,0.052,2.38,0.52C261.197,172.599,261,173.191,260.093,173.823z"/>
<path fill="#C7B299" d="M256.896,173.586c-0.605-0.247-0.276-1.171,0.394-1.454c0.672-0.283,1.697-0.073,2.329,0
	c0.632,0.073,0.315,1.02-0.435,1.454C258.435,174.02,257.764,173.941,256.896,173.586z"/>
</svg>
