<?xml version="1.0" encoding="utf-8"?>
<?xml-stylesheet type="text/css" href="blip.css"?>
<!DOCTYPE svg PUBLIC "-//W3C//DTD SVG 1.1//EN" "http://www.w3.org/Graphics/SVG/1.1/DTD/svg11.dtd">
<svg class="blip" version="1.1" id="Layer_2" xmlns="http://www.w3.org/2000/svg" xmlns:xlink="http://www.w3.org/1999/xlink" x="0px" y="0px"
	 width="500px" height="500px" viewBox="0 0 500 500" enable-background="new 0 0 500 500" xml:space="preserve">
   <use class="blip" xlink:href="http://floweringstones.co.za/blip.css"></use>
   <style>
    /* <![CDATA[ */
    .outer {
      fill: #d8d8d8;
      stroke: none;
      stroke-width: 0px;
    }
    .black {
      fill: #000000;
    }
    .white {
      fill: #fff;
    }
    .blip01 {
      fill: #C7B299;
    }
    .blip02 {
      fill: #998675;
    }
    .blip03 {
      fill: #D3BBAA;
    }
    .blip04 {
      fill: #736357;
    }
    .blip05 {
      fill: #E4D3C4;
    }
    .blip06 {
      fill: #231F20;
    }
    .blip07 {
      fill: #DCC7B4;
    }
    .blip08 {
      fill: #7A9F3D;
    }
    .blip09 {
      fill: #9AB741;
    }
    .blip10 {
      fill: #B4CE5F;
    }
    .blip11 {
      fill: #CADD75;
    }
    /* ]]> */
  </style>
<path class="outer" d="M386.462,159.589l0.796-13.176c24.044-9.497,41.064-32.928,41.064-60.348c0-35.832-29.048-64.88-64.88-64.88
	s-64.88,29.048-64.88,64.88c0,14.703,4.897,28.259,13.141,39.139c-19.635-5.085-40.425-7.829-61.953-7.829
	c-20.277,0-39.901,2.43-58.521,6.961l-8.987-9.784c7.774-11.344,12.331-25.067,12.331-39.859c0-38.994-31.611-70.605-70.605-70.605
	c-38.994,0-70.605,31.611-70.605,70.605c0,35.866,26.75,65.465,61.383,69.986l0.811,13.14
	c-50.601,34.695-83.099,88.563-83.099,149.051c0,104.655,97.285,189.495,217.292,189.495s217.292-84.84,217.292-189.495
	C467.042,247.396,435.614,194.331,386.462,159.589z"/>
<g>
	<path class="black" d="M249.75,129.077c-25.255,0-49.432,4.016-71.753,11.337c-5.75-7.267-12.098-15.335-16.625-21.114
		c12.612-10.618,20.632-26.516,20.632-44.292c0-31.97-25.916-57.886-57.886-57.886S66.232,43.039,66.232,75.008
		s25.916,57.886,57.886,57.886c0.313,0,0.622-0.019,0.934-0.024c1.179,6.331,3.348,17.777,5.774,29.584
		c-51.444,32.275-84.949,84.93-84.949,144.416c0,98.192,91.277,177.793,203.873,177.793s203.873-79.601,203.873-177.793
		S362.346,129.077,249.75,129.077z"/>
	<circle class="black" cx="363.649" cy="84.832" r="53.151"/>
</g>
<path class="blip01" d="M249.114,143.072c-21.682,0-42.507,3.147-61.906,8.923c1.492,1.861,2.723,3.382,3.561,4.395
	c6.308,7.632,16.283,22.717,12.863,36.722C200.629,205.411,190,218,170.554,218.345c-13.912,0.247-26.599-7.56-31.9-22.402
	c-1.601-4.484-2.705-9.848-4.782-19.19c-44.994,29.77-74.001,76.548-74.001,129.164c0,89.936,84.727,162.844,189.243,162.844
	s189.243-72.908,189.243-162.844S353.63,143.072,249.114,143.072z M303.819,401.969c-63.061,0-114.182-46.849-114.182-104.64
	s51.121-104.64,114.182-104.64s114.182,46.849,114.182,104.64S366.88,401.969,303.819,401.969z"/>
<path class="blip02" d="M249.114,470.333c109.136,0,189.243-74.481,189.243-164.417c0-7.253-0.559-14.393-1.627-21.396
	c-5.62-0.098-10.424,0.1-13.216,0.775c-2,0.484-3.95,1.466-5.965,2.754c0.293,3.058,0.452,6.152,0.452,9.279
	c0,57.791-51.121,104.64-114.182,104.64c-56.234,0-102.97-37.255-112.432-86.301c-1.936-0.684-4.002-1.55-6.361-1.918
	c-10.423-1.625-13.962-1.167-23.777-0.5c-9.814,0.667-38.47,5.617-61.25,3.75c-15.25-1.25-33.5-9.176-40.107-12.37
	c-0.004,0.429-0.022,0.856-0.022,1.286C59.871,395.852,144.598,470.333,249.114,470.333z"/>
<path class="blip01" d="M151.471,116.567c-3.443-4.463-7.916-7.936-11.001-10.093c-3.799,0.058-6.814,1.838-8.812,5.254
	c3.951,15.263,16.921,65.854,18.54,72.69c1.908,8.057,5.186,18.812,16.746,22.264c16.332,4.877,23.614-2.582,27.782-11.238
	c5.513-11.45,0.636-22.9-5.089-31.169C183.913,156.006,157.196,123.989,151.471,116.567z"/>
<path class="black" d="M317.218,148.61c0,0,17.028-25.257,21.693-31.83c4.665-6.573,9.542-10.814,18.871-7.209
	c9.33,3.605,8.481,8.481,8.057,15.691s-3.605,44.104-3.605,44.104s-9.118-6.573-22.9-12.722S317.218,148.61,317.218,148.61z"/>
<path class="blip04" d="M135.568,102.573c10.316-4.314,16.978,4.807,19.113,7.998c10.831-8.624,17.781-21.914,17.781-36.835
	c0-25.997-21.075-47.072-47.072-47.072S78.318,47.739,78.318,73.736c0,25.541,20.345,46.315,45.711,47.038
	C124.491,113.787,126.975,106.166,135.568,102.573z"/>
<path class="blip02" d="M129.081,107.115c1.633-1.821,3.739-3.393,6.487-4.542c4.267-1.785,7.907-1.265,10.863,0.178
	c12.626-6.532,21.261-19.703,21.261-34.899c0-21.694-17.586-39.28-39.28-39.28s-39.28,17.586-39.28,39.28
	c0,21.694,17.586,39.28,39.28,39.28C128.636,107.132,128.857,107.118,129.081,107.115z"/>
<circle class="blip01" cx="128.323" cy="63.03" r="26.896"/>
<circle class="blip05" cx="130.351" cy="61.002" r="16.228"/>
<circle class="white" cx="130.351" cy="61.002" r="7.322"/>
<path class="blip04" d="M133.894,108.881c-2.624,2.348-3.307,3.973-2.671,11.527c0.433,5.141,13.197,56.098,15.355,64.092
	c3.24,12,8.805,18.731,20.365,22.183c0.675,0.202,1.33,0.375,1.975,0.535L133.894,108.881z"/>
<path class="blip04" d="M363.573,38.108c-24.442,0-44.256,19.814-44.256,44.256c0,14.83,7.302,27.946,18.498,35.977
	c0.414-0.593,0.784-1.122,1.096-1.561c4.665-6.573,9.542-10.814,18.871-7.209c9.33,3.605,8.481,8.481,8.057,15.691
	c-0.021,0.358-0.051,0.808-0.085,1.304c23.428-1.138,42.074-20.491,42.074-44.201C407.829,57.922,388.015,38.108,363.573,38.108z"/>
<path class="blip02" d="M367.209,39.902c-19.957,0-36.135,16.094-36.135,35.947c0,14.27,8.358,26.598,20.471,32.403
	c1.844,0.005,3.901,0.415,6.238,1.318c1.426,0.551,2.59,1.136,3.579,1.75c1.904,0.308,3.856,0.475,5.848,0.475
	c19.957,0,36.135-16.094,36.135-35.947S387.166,39.902,367.209,39.902z"/>
<circle class="blip01" cx="369.193" cy="70.392" r="25.287"/>
<circle class="blip05" cx="370.919" cy="67.852" r="15.257"/>
<circle class="white" cx="370.919" cy="67.852" r="6.884"/>
<path class="blip02" d="M355.445,113.971c-7.433-2.059-9.847,2.634-13.207,8.148c-3.599,5.907-16.914,25.743-16.914,25.743
	s6.883,2.448,13.683,5.392c8.129,3.52,17.318,8.902,17.318,8.902s4.261-35.037,4.642-39.79
	C361.297,118.221,360.279,115.309,355.445,113.971z"/>
<path class="blip04" d="M349.716,113.857c-3.323,1.105-5.181,4.49-7.479,8.262c-3.599,5.907-16.914,25.743-16.914,25.743
	s3.426,1.219,7.827,2.969L349.716,113.857z"/>
<path class="blip03" d="M351.423,159.409l8.128-43.111c-0.832-0.964-2.074-1.721-3.861-2.251l-11.523,41.603
	C346.825,156.953,349.358,158.287,351.423,159.409z"/>
<path class="blip01" d="M346.634,156.883l10.228-42.424c-0.433-0.179-0.899-0.344-1.417-0.488c-0.409-0.113-0.797-0.198-1.177-0.272
	l-14.145,40.05C342.317,154.731,344.551,155.819,346.634,156.883z"/>
<path class="blip05" d="M427.066,270.585c-14.057-52.059-64.851-90.619-125.367-90.619c-64.152,0-117.378,43.333-127.495,100.145
	c-1.139,6.396-1.741,12.96-1.741,19.656c0,66.164,57.861,119.801,129.236,119.801c71.375,0,129.236-53.637,129.236-119.801
	C430.935,289.7,429.589,279.927,427.066,270.585z M303.819,410.709c-67.628,0-122.451-50.325-122.451-112.403
	c0-6.628,0.63-13.121,1.829-19.434c10.029-52.816,60.215-92.969,120.622-92.969c58.094,0,106.739,37.136,119.299,86.958
	c2.061,8.176,3.152,16.694,3.152,25.445C426.27,360.385,371.447,410.709,303.819,410.709z"/>
<path class="blip01" d="M430.935,299.767c0-5.144-0.356-10.211-1.037-15.184c-1.693,0.072-3.206,0.193-4.489,0.373
	c0.565,4.379,0.861,8.833,0.861,13.351c0,62.078-54.823,112.403-122.451,112.403c-62.06,0-113.329-42.381-121.352-97.332
	c-3.715-0.509-6.534-0.715-9.26-0.733c6.931,60.107,61.81,106.923,128.492,106.923C373.074,419.568,430.935,365.931,430.935,299.767
	z"/>
<ellipse class="blip06" cx="154.228" cy="287.93" rx="16.963" ry="19.894"/>
<ellipse transform="matrix(0.9969 -0.0781 0.0781 0.9969 -25.9845 13.3368)" class="blip06" cx="157.62" cy="339.078" rx="16.963" ry="19.894"/>
<ellipse transform="matrix(0.9436 -0.3312 0.3312 0.9436 -117.6642 81.9479)" class="blip06" cx="181.651" cy="386.27" rx="16.963" ry="19.894"/>
<ellipse transform="matrix(0.9436 -0.3312 0.3312 0.9436 -117.6308 81.0837)" class="blip03" cx="179.132" cy="385.74" rx="11.575" ry="13.583"/>
<ellipse transform="matrix(0.9436 -0.3311 0.3311 0.9436 -117.6025 80.3011)" class="blip02" cx="176.849" cy="385.266" rx="7.802" ry="10.739"/>
<ellipse transform="matrix(0.9436 -0.3312 0.3312 0.9436 -116.4439 78.5905)" class="blip05" cx="172.409" cy="381.01" rx="2.6" ry="2.581"/>
<ellipse transform="matrix(0.9969 -0.0781 0.0781 0.9969 -25.9285 13.1209)" class="blip07" cx="154.886" cy="338.253" rx="11.502" ry="13.836"/>
<ellipse transform="matrix(0.9969 -0.0781 0.0781 0.9969 -25.9177 12.9047)" class="blip02" cx="152.126" cy="338.009" rx="7.783" ry="10.903"/>
<ellipse transform="matrix(0.9969 -0.0781 0.0781 0.9969 -25.5344 12.638)" class="blip05" cx="148.906" cy="332.971" rx="2.562" ry="2.405"/>
<ellipse class="blip07" cx="151.903" cy="285.295" rx="11.034" ry="13.305"/>
<ellipse class="blip02" cx="149.987" cy="284.792" rx="7.633" ry="11.9"/>
<ellipse class="blip05" cx="147.359" cy="279.911" rx="2.461" ry="2.469"/>
<ellipse class="blip08" cx="304.09" cy="297.514" rx="100.81" ry="91.918"/>
<ellipse class="blip09" cx="311.076" cy="295.605" rx="93.824" ry="82.376"/>
<ellipse class="blip10" cx="316.792" cy="294.555" rx="84.501" ry="75.061"/>
<ellipse class="blip11" cx="332.582" cy="266.397" rx="31.715" ry="29.844"/>
<polygon class="white" points="237.63,281.293 320.324,258.181 237.63,231.04 320.324,251.396 264.771,187.361 325.413,246.307 
	311.801,175.062 333.47,246.307 357.493,170.39 339.832,247.579 398.778,191.601 344.92,251.396 427.191,234.433 344.072,257.333 
	425.07,284.208 341.104,264.118 399.626,325.184 338.135,270.903 356.37,351.477 330.502,270.903 305.376,351.477 324.989,266.949 
	261.301,328.577 318.628,264.966 "/>
<path class="blip02" d="M133.115,109.565l32.948,96.807c0.296,0.102,0.574,0.219,0.882,0.311c5.171,1.544,9.433,1.849,12.978,1.273
	l-44.785-99.952C134.418,108.448,133.74,108.971,133.115,109.565z"/>
<path class="blip04" d="M151.471,116.567c-5.202-6.743-7.923-11.156-13.138-9.892l54.111,92.81c0.857-1.285,1.611-2.647,2.282-4.04
	c5.513-11.45,0.636-22.9-5.089-31.169S157.196,123.989,151.471,116.567z"/>
<path class="blip02" d="M136.561,107.269l51.055,97.451c3.158-2.373,5.389-5.708,7.096-9.248l-55.765-88.94
	C138.121,106.687,137.324,106.934,136.561,107.269z"/>
</svg>
