<?xml version="1.0" encoding="utf-8"?>
<!-- Generator: Adobe Illustrator 17.0.0, SVG Export Plug-In . SVG Version: 6.00 Build 0)  -->
<!DOCTYPE svg PUBLIC "-//W3C//DTD SVG 1.1//EN" "http://www.w3.org/Graphics/SVG/1.1/DTD/svg11.dtd">
<svg version="1.1" id="Layer_1" xmlns="http://www.w3.org/2000/svg" xmlns:xlink="http://www.w3.org/1999/xlink" x="0px" y="0px"
	 width="9000px" height="399.21px" viewBox="0 0 9000 399.21" enable-background="new 0 0 9000 399.21" xml:space="preserve">
<path fill="#9BB250" d="M9000,399.21V0c0,0-176.667-1.79-396,29.288c-105.322,14.924-405.551,80.489-706,80.489
	c-392.652,0-633.385-56.836-784.154-70.672C6893.379,18.874,6598,8.079,6332,42.286c-105.506,13.568-383.551,67.491-684,67.491
	c-392.652,0-747.866-77.974-898.866-89.003C4613.494,10.867,4500,6,4500,6s-181.871-5.08-396,23.288
	c-105.453,13.971-405.551,80.489-706,80.489c-392.652,0-633.385-56.836-784.154-70.672C2393.379,18.874,2098,8.079,1832,42.286
	c-105.506,13.568-383.551,67.491-684,67.491c-392.652,0-664.5-78.068-893-96.568C119.443,2.235,0,0,0,0v399.21"/>
</svg>