<svg xmlns="http://www.w3.org/2000/svg" x="0px" y="0px"
	 width="1200px" height="600px" viewBox="0 0 1200 600" className="stars" style="opacity:0.3">
<polygon fill="#FFFFFF" points="278.53,113.079 276.156,109.558 272.645,112.318 275.083,108.848 271.646,106.782 275.935,107.663 
	276.888,103.936 277.066,108.108 280.665,108.078 277.234,109.303 "/>
<polygon fill="#FFFFFF" points="62.479,28.019 58.777,24.382 55.248,28.543 57.32,23.794 52.702,22.159 58.051,22.168 
	58.282,17.474 59.513,22.425 63.815,21.511 60.005,23.815 "/>
<polygon fill="#FFFFFF" points="286.665,172.671 283.539,169.6 280.559,173.114 282.308,169.103 278.408,167.723 282.926,167.73 
	283.121,163.766 284.16,167.947 287.793,167.176 284.576,169.121 "/>
<polygon fill="#FFFFFF" points="347.436,115.08 345.476,110.276 340.589,112.7 344.371,109.158 340.777,105.829 345.686,107.955 
	347.756,103.735 346.926,108.769 351.239,109.633 346.829,110.24 "/>
<polygon fill="#927DB6" points="270.341,149.551 267.44,145.249 263.151,148.621 266.129,144.381 261.93,141.857 267.171,142.934 
	268.334,138.38 268.551,143.478 272.95,143.441 268.757,144.938 "/>
<polygon fill="#FFFFFF" points="318.131,162.874 314.43,159.238 310.901,163.399 312.972,158.65 308.354,157.015 313.704,157.024 
	313.935,152.329 315.165,157.28 319.468,156.367 315.658,158.67 "/>
<polygon fill="#FFFFFF" points="189.746,61.896 186.746,59.393 184.351,62.731 185.616,59.04 182.05,58.095 186.066,57.775 
	185.953,54.238 187.178,57.879 190.352,56.931 187.633,58.892 "/>
<polygon fill="#FFFFFF" points="405.593,179.358 402.323,175.33 398.349,179.068 400.941,174.581 396.535,172.438 401.85,173.048 
	402.607,168.409 403.273,173.467 407.651,173.042 403.607,174.903 "/>
<polygon fill="#FFFFFF" points="295.164,289.94 290.489,292.191 293.208,296.921 289.441,293.363 286.338,297.154 288.16,292.123 
	283.821,290.315 288.896,290.836 289.495,286.478 290.371,290.843 "/>
<polygon fill="#FFFFFF" points="331.164,282.905 327.032,286.043 330.641,290.135 326.24,287.401 323.956,291.735 324.736,286.442 
	320.124,285.537 325.201,285.033 324.917,280.644 326.647,284.746 "/>
<polygon fill="#FFFFFF" points="373.216,325.356 369.084,328.494 372.693,332.586 368.292,329.852 366.008,334.186 366.788,328.893 
	362.176,327.988 367.253,327.484 366.969,323.095 368.699,327.197 "/>
<polygon fill="#FFFFFF" points="332.984,228.844 329.12,232.307 333.049,236.094 328.44,233.724 326.516,238.229 326.864,232.891 
	322.194,232.362 327.213,231.449 326.575,227.097 328.632,231.046 "/>
<polygon fill="#FFFFFF" points="933.988,54.419 929.53,57.073 932.657,61.545 928.59,58.333 925.835,62.384 927.204,57.212 
	922.723,55.795 927.824,55.864 928.035,51.471 929.293,55.741 "/>
<polygon fill="#FFFFFF" points="395.52,238.36 391.388,241.498 394.997,245.591 390.596,242.856 388.312,247.19 389.092,241.898 
	384.48,240.992 389.557,240.488 389.273,236.099 391.003,240.201 "/>
<polygon fill="#FFFFFF" points="432.274,89.894 428.411,93.357 432.339,97.144 427.731,94.774 425.806,99.279 426.155,93.941 
	421.484,93.412 426.504,92.499 425.865,88.147 427.922,92.096 "/>
<polygon fill="#FFFFFF" points="376.715,174.853 372.258,177.508 375.384,181.98 371.318,178.768 368.562,182.819 369.931,177.647 
	365.45,176.23 370.551,176.299 370.762,171.906 372.021,176.176 "/>
<polygon fill="#FFFFFF" points="450.472,71.376 449.015,66.397 443.904,68.307 448.03,65.172 444.796,61.492 449.461,64.109 
	451.953,60.124 450.612,65.046 454.813,66.347 450.364,66.5 "/>
<polygon fill="#927DB6" points="451.541,108.041 449.118,103.453 444.492,106.346 447.908,102.45 444.005,99.49 449.099,101.123 
	450.745,96.72 450.413,101.811 454.79,102.247 450.461,103.285 "/>
<polygon fill="#FFFFFF" points="389.383,76.917 386.96,72.328 382.334,75.221 385.75,71.325 381.847,68.365 386.941,69.998 
	388.587,65.595 388.255,70.686 392.632,71.123 388.303,72.16 "/>
<polygon fill="#FFFFFF" points="504.58,118.657 501.794,114.28 497.417,117.538 500.506,113.378 496.376,110.744 501.586,111.959 
	502.869,107.437 502.952,112.539 507.349,112.619 503.118,114.004 "/>
<polygon fill="#FFFFFF" points="514.823,91.707 514.414,86.534 509.021,87.36 513.7,85.134 511.287,80.871 515.319,84.387 
	518.573,80.995 516.253,85.539 520.1,87.672 515.714,86.911 "/>
<polygon fill="#FFFFFF" points="554.003,128.861 552.111,124.029 547.189,126.384 551.021,122.897 547.475,119.517 552.353,121.712 
	554.483,117.522 553.582,122.543 557.882,123.468 553.464,124.013 "/>
<polygon fill="#FFFFFF" points="483.618,39.268 482.161,34.288 477.05,36.199 481.176,33.063 477.942,29.383 482.607,32.001 
	485.099,28.015 483.758,32.938 487.959,34.239 483.51,34.391 "/>
<polygon fill="#FFFFFF" points="472.388,128.345 469.965,123.757 465.339,126.649 468.755,122.753 464.852,119.793 469.946,121.426 
	471.592,117.024 471.26,122.115 475.637,122.551 471.308,123.588 "/>
<polygon fill="#FFFFFF" points="490.292,307.12 488.805,304.302 485.964,306.078 488.062,303.686 485.665,301.869 488.793,302.871 
	489.803,300.168 489.6,303.294 492.287,303.562 489.629,304.199 "/>
<polygon fill="#FFFFFF" points="610.799,93.549 608.013,89.172 603.636,92.43 606.725,88.27 602.595,85.636 607.805,86.851 
	609.088,82.329 609.17,87.43 613.568,87.511 609.337,88.895 "/>
<polygon fill="#927DB6" points="548.213,86.333 547.805,81.161 542.411,81.986 547.09,79.761 544.677,75.497 548.709,79.013 
	551.963,75.621 549.644,80.166 553.49,82.298 549.104,81.538 "/>
<polygon fill="#FFFFFF" points="1094.321,96.695 1089.183,97.42 1090.337,102.752 1087.829,98.218 1083.721,100.888 
	1086.984,96.648 1083.4,93.608 1088.077,95.645 1089.97,91.675 1089.48,96.1 "/>
<polygon fill="#FFFFFF" points="706.877,27.194 701.988,28.929 704.183,33.924 700.82,29.982 697.328,33.418 699.679,28.613 
	695.56,26.349 700.55,27.411 701.612,23.143 702.015,27.577 "/>
<polygon fill="#FFFFFF" points="466.403,179.634 462.856,181.227 464.799,184.825 462.048,182.084 459.648,184.863 461.112,181.13 
	457.898,179.69 461.689,180.18 462.224,176.927 462.794,180.215 "/>
<polygon fill="#FFFFFF" points="521.76,37.978 516.583,37.637 516.623,43.093 515.095,38.142 510.528,39.915 514.588,36.432 
	511.701,32.723 515.863,35.674 518.528,32.174 517.143,36.406 "/>
<polygon fill="#FFFFFF" points="1123.728,53.274 1118.675,54.45 1120.295,59.66 1117.396,55.365 1113.541,58.387 1116.416,53.876 
	1112.577,51.165 1117.416,52.78 1118.951,48.658 1118.853,53.109 "/>
<polygon fill="#FFFFFF" points="452.71,158.288 447.533,157.947 447.573,163.403 446.045,158.452 441.478,160.226 445.538,156.743 
	442.651,153.034 446.813,155.984 449.478,152.485 448.093,156.716 "/>
<polygon fill="#FFFFFF" points="524.567,157.549 519.514,158.725 521.135,163.934 518.236,159.64 514.38,162.662 517.255,158.151 
	513.416,155.439 518.255,157.055 519.79,152.933 519.693,157.384 "/>
<polygon fill="#FFFFFF" points="50.18,72.701 47.28,68.399 42.991,71.771 45.969,67.531 41.77,65.007 47.01,66.084 48.174,61.53 
	48.391,66.627 52.789,66.591 48.596,68.087 "/>
<polygon fill="#FFFFFF" points="62.333,107.31 58.631,103.674 55.102,107.835 57.174,103.085 52.556,101.451 57.905,101.46 
	58.136,96.765 59.367,101.716 63.669,100.803 59.859,103.106 "/>
<polygon fill="#FFFFFF" points="58.459,131.701 54.757,128.065 51.228,132.226 53.3,127.476 48.682,125.842 54.031,125.851 
	54.263,121.156 55.493,126.107 59.795,125.194 55.985,127.497 "/>
<polygon fill="#FFFFFF" points="116.091,101.318 112.107,97.993 108.926,102.426 110.607,97.525 105.871,96.27 111.204,95.845 
	111.054,91.147 112.681,95.983 116.896,94.723 113.285,97.328 "/>
<polygon fill="#FFFFFF" points="117.666,72.53 115.706,67.726 110.818,70.15 114.6,66.608 111.006,63.279 115.916,65.405 
	117.986,61.185 117.156,66.219 121.469,67.083 117.058,67.69 "/>
<polygon fill="#FFFFFF" points="166.279,96.031 163.009,92.002 159.035,95.741 161.627,91.254 157.221,89.111 162.536,89.721 
	163.293,85.082 163.959,90.14 168.337,89.715 164.293,91.576 "/>
<polygon fill="#FFFFFF" points="77.279,82.008 74.378,77.706 70.089,81.078 73.067,76.838 68.869,74.314 74.109,75.391 
	75.273,70.837 75.49,75.934 79.888,75.898 75.695,77.394 "/>
<polygon fill="#FFFFFF" points="88.361,120.324 84.659,116.688 81.13,120.849 83.202,116.099 78.584,114.465 83.933,114.474 
	84.164,109.779 85.395,114.73 89.697,113.817 85.887,116.12 "/>
<polygon fill="#FFFFFF" points="115.69,164.572 111.989,160.936 108.46,165.097 110.531,160.347 105.913,158.712 111.263,158.721 
	111.494,154.027 112.724,158.978 117.027,158.064 113.217,160.368 "/>
<polygon fill="#FFFFFF" points="143.694,72.53 141.734,67.726 136.846,70.15 140.628,66.608 137.034,63.279 141.944,65.405 
	144.014,61.185 143.184,66.219 147.497,67.083 143.086,67.69 "/>
<polygon fill="#927DB6" points="65.394,247.39 60.718,249.641 63.437,254.371 59.671,250.812 56.568,254.604 58.389,249.573 
	54.051,247.765 59.126,248.285 59.724,243.928 60.6,248.293 "/>
<polygon fill="#927DB6" points="101.393,240.355 97.262,243.493 100.87,247.585 96.469,244.851 94.186,249.185 94.966,243.892 
	90.354,242.987 95.43,242.483 95.147,238.094 96.877,242.196 "/>
<polygon fill="#FFFFFF" points="103.214,186.294 99.35,189.757 103.278,193.543 98.67,191.174 96.745,195.679 97.094,190.341 
	92.423,189.812 97.443,188.899 96.804,184.547 98.861,188.495 "/>
<polygon fill="#FFFFFF" points="102.461,134.852 99.201,136.794 101.487,140.064 98.513,137.715 96.498,140.678 97.499,136.895 
	94.221,135.859 97.953,135.909 98.107,132.696 99.027,135.82 "/>
<polygon fill="#FFFFFF" points="78.51,221.917 73.835,224.167 76.554,228.897 72.787,225.339 69.684,229.13 71.506,224.1 
	67.167,222.292 72.242,222.812 72.841,218.454 73.717,222.819 "/>
<polygon fill="#FFFFFF" points="165.749,195.81 161.618,198.948 165.226,203.04 160.825,200.306 158.542,204.64 159.322,199.347 
	154.71,198.442 159.786,197.938 159.503,193.549 161.233,197.651 "/>
<polygon fill="#FFFFFF" points="160.328,166.062 156.464,169.524 160.393,173.311 155.784,170.942 153.86,175.447 154.208,170.108 
	149.538,169.579 154.557,168.666 153.919,164.314 155.976,168.263 "/>
<polygon fill="#FFFFFF" points="78.706,154.829 73.669,156.076 75.364,161.262 72.405,157.009 68.592,160.086 71.403,155.534 
	67.526,152.877 72.388,154.424 73.864,150.281 73.829,154.732 "/>
<polygon fill="#FFFFFF" points="143.696,143.109 140.31,145.125 142.685,148.521 139.596,146.082 137.503,149.159 138.543,145.231 
	135.139,144.154 139.014,144.207 139.174,140.87 140.13,144.113 "/>
<polygon fill="#FFFFFF" points="220.702,28.826 219.245,23.846 214.134,25.757 218.259,22.622 215.025,18.942 219.691,21.559 
	222.183,17.574 220.841,22.496 225.043,23.797 220.593,23.95 "/>
<polygon fill="#FFFFFF" points="221.77,65.491 219.348,60.903 214.722,63.796 218.138,59.9 214.234,56.94 219.329,58.573 
	220.974,54.17 220.643,59.261 225.02,59.697 220.69,60.735 "/>
<polygon fill="#FFFFFF" points="159.612,34.366 157.19,29.778 152.564,32.671 155.98,28.775 152.076,25.815 157.171,27.448 
	158.816,23.045 158.485,28.136 162.862,28.572 158.532,29.61 "/>
<polygon fill="#FFFFFF" points="335.809,29.107 333.023,24.73 328.647,27.988 331.736,23.828 327.605,21.194 332.815,22.409 
	334.099,17.887 334.181,22.988 338.579,23.069 334.348,24.453 "/>
<polygon fill="#FFFFFF" points="285.052,49.157 284.644,43.984 279.251,44.81 283.93,42.584 281.516,38.321 285.548,41.837 
	288.802,38.445 286.483,42.989 290.33,45.122 285.943,44.361 "/>
<polygon fill="#FFFFFF" points="324.233,86.311 322.341,81.479 317.419,83.834 321.251,80.347 317.704,76.967 322.583,79.162 
	324.713,74.972 323.812,79.993 328.112,80.918 323.693,81.463 "/>
<polygon fill="#FFFFFF" points="243.694,45.923 242.237,40.943 237.126,42.854 241.252,39.718 238.018,36.039 242.683,38.656 
	245.175,34.671 243.834,39.593 248.035,40.894 243.586,41.046 "/>
<polygon fill="#FFFFFF" points="242.617,85.795 240.195,81.207 235.569,84.099 238.985,80.203 235.081,77.243 240.175,78.876 
	241.821,74.474 241.49,79.565 245.867,80.001 241.537,81.038 "/>
<polygon fill="#FFFFFF" points="39.653,316.347 37.231,311.759 32.605,314.651 36.021,310.756 32.117,307.795 37.212,309.429 
	38.857,305.026 38.526,310.117 42.903,310.553 38.573,311.591 "/>
<polygon fill="#FFFFFF" points="309.851,57.061 309.443,51.888 304.05,52.714 308.729,50.488 306.315,46.225 310.347,49.741 
	313.601,46.349 311.282,50.893 315.129,53.026 310.742,52.265 "/>
<polygon fill="#927DB6" points="205.55,243.145 200.413,243.87 201.567,249.202 199.059,244.668 194.951,247.338 198.214,243.098 
	194.629,240.058 199.307,242.095 201.2,238.125 200.709,242.55 "/>
<polygon fill="#FFFFFF" points="979.584,36.115 974.694,37.85 976.89,42.845 973.527,38.903 970.035,42.339 972.386,37.534 
	968.266,35.27 973.256,36.332 974.319,32.064 974.721,36.498 "/>
<polygon fill="#FFFFFF" points="314.3,253.525 309.41,255.26 311.605,260.255 308.243,256.313 304.751,259.749 307.101,254.944 
	302.982,252.68 307.972,253.742 309.034,249.474 309.437,253.908 "/>
<polygon fill="#FFFFFF" points="253.958,105.724 248.904,106.9 250.525,112.11 247.626,107.815 243.77,110.837 246.646,106.326 
	242.806,103.614 247.646,105.23 249.181,101.108 249.083,105.559 "/>
<polygon fill="#FFFFFF" points="152.381,553.598 147.243,554.323 148.397,559.655 145.889,555.121 141.781,557.791 145.044,553.551 
	141.459,550.511 146.137,552.548 148.03,548.578 147.539,553.003 "/>
<polygon fill="#FFFFFF" points="241.681,186.413 236.791,188.148 238.987,193.143 235.624,189.201 232.132,192.637 234.483,187.832 
	230.363,185.568 235.353,186.63 236.416,182.362 236.818,186.796 "/>
<polygon fill="#FFFFFF" points="47.402,178.093 42.512,179.828 44.708,184.823 41.345,180.881 37.853,184.317 40.204,179.511 
	36.084,177.248 41.074,178.31 42.137,174.042 42.539,178.476 "/>
<polygon fill="#FFFFFF" points="91.53,274.44 86.797,276.565 89.39,281.366 85.719,277.709 82.517,281.417 84.471,276.437 
	80.181,274.515 85.241,275.169 85.954,270.829 86.715,275.215 "/>
<polygon fill="#FFFFFF" points="222.94,115.738 217.763,115.397 217.802,120.853 216.274,115.902 211.707,117.675 215.768,114.192 
	212.881,110.484 217.043,113.434 219.708,109.935 218.323,114.166 "/>
<polygon fill="#FFFFFF" points="1041.085,439.09 1036.142,437.511 1034.866,442.816 1034.576,437.643 1029.716,438.264 
	1034.496,435.862 1032.588,431.566 1035.917,435.432 1039.346,432.679 1036.983,436.451 "/>
<polygon fill="#FFFFFF" points="637.926,240.83 632.768,240.269 632.576,245.722 631.259,240.711 626.621,242.29 630.826,238.982 
	628.098,235.154 632.132,238.277 634.942,234.894 633.379,239.063 "/>
<polygon fill="#FFFFFF" points="954.569,240.373 949.411,239.813 949.219,245.266 947.902,240.255 943.265,241.833 947.469,238.525 
	944.741,234.698 948.775,237.821 951.585,234.438 950.023,238.607 "/>
<polygon fill="#FFFFFF" points="911.496,96.592 906.31,96.452 906.56,101.902 904.842,97.014 900.347,98.963 904.27,95.326 
	901.241,91.732 905.514,94.518 908.042,90.918 906.822,95.2 "/>
<polygon fill="#927DB6" points="659.801,179.243 655.286,176.687 652.952,181.619 653.726,176.495 648.842,176.11 654.012,174.736 
	653.022,170.141 655.49,174.606 659.41,172.611 656.325,175.821 "/>
<polygon fill="#FFFFFF" points="712.518,167.563 707.456,166.428 706.653,171.825 705.907,166.697 701.121,167.745 705.671,164.93 
	703.39,160.82 707.047,164.377 710.22,161.331 708.199,165.297 "/>
<polygon fill="#927DB6" points="1004.977,281.709 1000.034,280.13 998.758,285.435 998.468,280.261 993.609,280.882 998.389,278.48 
	996.48,274.185 999.809,278.051 1003.239,275.297 1000.875,279.07 "/>
<polygon fill="#FFFFFF" points="666.419,234.914 661.26,234.354 661.069,239.807 659.752,234.796 655.114,236.374 659.318,233.066 
	656.591,229.239 660.624,232.362 663.435,228.979 661.872,233.148 "/>
<polygon fill="#FFFFFF" points="709.646,206.414 704.46,206.273 704.711,211.723 702.992,206.835 698.497,208.785 702.42,205.147 
	699.391,201.553 703.665,204.339 706.192,200.739 704.972,205.021 "/>
<polygon fill="#FFFFFF" points="680.229,163.114 675.714,160.558 673.38,165.49 674.154,160.366 669.27,159.98 674.44,158.606 
	673.45,154.012 675.918,158.477 679.839,156.482 676.754,159.692 "/>
<polygon fill="#FFFFFF" points="745.278,193.654 740.215,192.518 739.413,197.915 738.666,192.787 733.881,193.835 738.43,191.02 
	736.149,186.91 739.807,190.467 742.979,187.421 740.958,191.388 "/>
<polygon fill="#FFFFFF" points="1052.134,355.875 1049.859,360.538 1054.924,362.566 1049.763,362.107 1049.677,367.005 
	1047.989,361.929 1043.464,363.198 1047.769,360.462 1045.539,356.671 1048.931,359.554 "/>
<polygon fill="#FFFFFF" points="1125.028,494.044 1123.73,499.068 1129.099,500.044 1123.95,500.624 1124.843,505.441 
	1122.176,500.804 1117.995,502.951 1121.667,499.41 1118.725,496.141 1122.625,498.289 "/>
<polygon fill="#FFFFFF" points="810.339,328.303 809.041,333.327 814.409,334.302 809.261,334.883 810.154,339.7 807.487,335.063 
	803.306,337.21 806.978,333.669 804.036,330.4 807.936,332.547 "/>
<polygon fill="#FFFFFF" points="718.957,277.487 718.07,282.599 723.499,283.137 718.415,284.133 719.695,288.861 716.661,284.455 
	712.668,286.935 716.041,283.107 712.844,280.087 716.905,281.912 "/>
<polygon fill="#FFFFFF" points="693.239,290.519 690.059,294.618 694.602,297.639 689.644,296.134 688.558,300.912 687.944,295.597 
	683.255,295.915 688.029,294.116 686.62,289.949 689.352,293.465 "/>
<polygon fill="#927DB6" points="697.092,110.922 695.238,115.598 700.463,117 695.281,117 695.628,122.056 693.499,117.234 
	689.103,118.94 693.15,115.855 690.593,112.287 694.227,114.864 "/>
<polygon fill="#FFFFFF" points="1032.731,170.054 1030.456,174.717 1035.521,176.745 1030.36,176.286 1030.274,181.184 
	1028.586,176.108 1024.06,177.377 1028.366,174.64 1026.135,170.85 1029.528,173.733 "/>
<polygon fill="#FFFFFF" points="749.283,291.997 747.985,297.02 753.353,297.996 748.204,298.577 749.098,303.393 746.43,298.756 
	742.249,300.904 745.922,297.362 742.979,294.093 746.879,296.241 "/>
<polygon fill="#FFFFFF" points="868.934,500.203 867.636,505.226 873.005,506.202 867.856,506.783 868.749,511.6 866.082,506.962 
	861.901,509.11 865.573,505.569 862.631,502.3 866.531,504.447 "/>
<polygon fill="#FFFFFF" points="751.057,225.962 750.329,230.16 754.787,230.602 750.612,231.42 751.664,235.303 749.172,231.684 
	745.893,233.72 748.663,230.577 746.037,228.098 749.372,229.596 "/>
<polygon fill="#FFFFFF" points="978.223,419.979 975.043,424.078 979.587,427.099 974.628,425.594 973.543,430.372 972.928,425.057 
	968.239,425.375 973.013,423.576 971.604,419.409 974.336,422.925 "/>
<polygon fill="#927DB6" points="719.822,208.013 717.968,212.643 723.193,214 718.011,214 718.358,219.102 716.229,214.302 
	711.833,216.02 715.88,212.94 713.323,209.375 716.957,211.953 "/>
<polygon fill="#FFFFFF" points="713.587,81.092 709.357,78.087 706.53,82.754 707.825,77.737 703.006,76.853 708.29,76.016 
	707.776,71.344 709.774,76.038 713.877,74.456 710.48,77.332 "/>
<polygon fill="#FFFFFF" points="687.941,61.564 683.196,59.464 681.358,64.601 681.625,59.426 676.727,59.522 681.737,57.647 
	680.301,53.172 683.195,57.373 686.901,55.003 684.146,58.5 "/>
<polygon fill="#FFFFFF" points="669.074,123.297 664.329,121.197 662.491,126.334 662.758,121.159 657.86,121.255 662.87,119.38 
	661.434,114.905 664.328,119.106 668.034,116.736 665.279,120.233 "/>
<polygon fill="#FFFFFF" points="785.352,84.671 780.453,82.962 779.037,88.231 778.884,83.052 774.01,83.545 778.852,81.27 
	777.057,76.925 780.283,80.878 783.784,78.216 781.321,81.925 "/>
<polygon fill="#FFFFFF" points="776.691,57.172 773.165,53.365 769.444,57.356 771.737,52.709 767.201,50.859 772.544,51.12 
	772.996,46.441 773.992,51.445 778.332,50.735 774.418,52.856 "/>
<polygon fill="#FFFFFF" points="830.465,62.053 825.986,59.433 823.583,64.332 824.429,59.22 819.551,58.765 824.74,57.464 
	823.815,52.856 826.22,57.355 830.168,55.416 827.038,58.582 "/>
<polygon fill="#FFFFFF" points="742.227,80.263 737.997,77.257 735.17,81.924 736.465,76.907 731.646,76.023 736.93,75.186 
	736.416,70.514 738.414,75.208 742.518,73.626 739.12,76.503 "/>
<polygon fill="#FFFFFF" points="766.09,112.224 761.345,110.124 759.507,115.261 759.774,110.086 754.876,110.182 759.886,108.307 
	758.449,103.832 761.344,108.033 765.049,105.663 762.294,109.16 "/>
<polygon fill="#FFFFFF" points="899.974,261.457 895.23,259.357 893.391,264.494 893.658,259.319 888.76,259.415 893.771,257.54 
	892.334,253.065 895.229,257.266 898.934,254.896 896.179,258.393 "/>
<polygon fill="#FFFFFF" points="815.931,98.196 811.032,96.487 809.616,101.756 809.463,96.577 804.589,97.069 809.431,94.795 
	807.636,90.45 810.862,94.403 814.363,91.741 811.9,95.45 "/>
<polygon fill="#FFFFFF" points="801.052,48.008 797.526,44.201 793.805,48.192 796.098,43.545 791.562,41.695 796.905,41.956 
	797.357,37.277 798.353,42.281 802.694,41.571 798.78,43.692 "/>
<polygon fill="#FFFFFF" points="853.755,96.859 849.276,94.24 846.872,99.138 847.719,94.026 842.841,93.571 848.03,92.27 
	847.105,87.662 849.51,92.162 853.458,90.223 850.327,93.388 "/>
<polygon fill="#FFFFFF" points="834.505,258.69 830.922,262.442 835.132,265.913 830.354,263.908 828.784,268.549 828.718,263.2 
	824.021,263.035 828.954,261.735 827.98,257.446 830.337,261.223 "/>
<polygon fill="#927DB6" points="897.871,214.513 895.109,218.905 899.927,221.465 894.845,220.455 894.234,225.315 893.1,220.087 
	888.465,220.864 893.039,218.605 891.228,214.596 894.292,217.827 "/>
<polygon fill="#FFFFFF" points="926.289,199.446 923.527,203.838 928.345,206.398 923.263,205.388 922.652,210.249 921.519,205.02 
	916.883,205.797 921.458,203.538 919.647,199.53 922.71,202.76 "/>
<polygon fill="#FFFFFF" points="803.218,168.74 800.821,173.342 805.831,175.503 800.684,174.908 800.468,179.802 798.915,174.683 
	794.358,175.832 798.734,173.21 796.604,169.362 799.919,172.333 "/>
<polygon fill="#FFFFFF" points="774.758,173.347 770.483,176.287 773.895,180.545 769.627,177.606 767.142,181.828 768.171,176.578 
	763.606,175.456 768.701,175.192 768.624,170.794 770.159,174.973 "/>
<polygon fill="#FFFFFF" points="787.34,120.838 784.102,124.892 788.603,127.977 783.666,126.402 782.513,131.164 781.974,125.841 
	777.281,126.092 782.08,124.361 780.73,120.175 783.412,123.729 "/>
<polygon fill="#FFFFFF" points="1113.639,291.78 1110.055,295.532 1114.265,299.002 1109.487,296.998 1107.918,301.638 
	1107.851,296.289 1103.154,296.124 1108.087,294.824 1107.113,290.535 1109.47,294.312 "/>
<polygon fill="#FFFFFF" points="827.706,191.774 824.944,196.166 829.762,198.726 824.68,197.716 824.069,202.577 822.936,197.348 
	818.3,198.125 822.875,195.866 821.064,191.857 824.127,195.088 "/>
<polygon fill="#FFFFFF" points="865.1,155.629 862.338,160.021 867.156,162.581 862.074,161.571 861.463,166.432 860.33,161.203 
	855.694,161.98 860.268,159.721 858.458,155.713 861.521,158.943 "/>
<polygon fill="#FFFFFF" points="919.685,125.824 917.288,130.425 922.298,132.586 917.151,131.991 916.935,136.885 915.382,131.766 
	910.825,132.915 915.201,130.293 913.071,126.445 916.386,129.417 "/>
<polygon fill="#FFFFFF" points="769.201,147.919 764.927,150.859 768.339,155.117 764.071,152.178 761.586,156.4 762.615,151.15 
	758.05,150.028 763.145,149.764 763.068,145.366 764.603,149.545 "/>
<polygon fill="#FFFFFF" points="1017.14,206.81 1013.903,210.864 1018.403,213.948 1013.466,212.374 1012.313,217.136 
	1011.774,211.813 1007.081,212.064 1011.88,210.333 1010.53,206.147 1013.212,209.701 "/>
<polygon fill="#FFFFFF" points="400.238,330.187 395.296,328.608 394.019,333.913 393.729,328.739 388.87,329.36 393.65,326.958 
	391.741,322.663 395.07,326.529 398.5,323.775 396.136,327.548 "/>
<polygon fill="#FFFFFF" points="422.209,130.023 417.051,129.463 416.859,134.916 415.542,129.905 410.905,131.483 415.109,128.175 
	412.381,124.348 416.415,127.471 419.225,124.088 417.663,128.257 "/>
<polygon fill="#FFFFFF" points="525.657,255.12 522.313,253.227 520.585,256.88 521.158,253.085 517.54,252.799 521.37,251.782 
	520.636,248.378 522.465,251.685 525.368,250.208 523.083,252.585 "/>
<polygon fill="#927DB6" points="427.274,320.699 422.331,319.12 421.055,324.425 420.765,319.251 415.905,319.872 420.686,317.47 
	418.777,313.175 422.106,317.041 425.535,314.287 423.172,318.06 "/>
<polygon fill="#FFFFFF" points="926.874,361.43 922.513,362.634 924.11,367.115 921.432,363.477 918.18,366.247 920.525,362.214 
	917.083,359.988 921.357,361.224 922.548,357.578 922.621,361.459 "/>
<polygon fill="#FFFFFF" points="999.585,475.696 994.426,475.136 994.235,480.589 992.918,475.578 988.28,477.156 992.484,473.848 
	989.757,470.021 993.79,473.144 996.601,469.761 995.038,473.93 "/>
<polygon fill="#FFFFFF" points="829.416,389.602 824.23,389.461 824.48,394.912 822.762,390.023 818.267,391.973 822.19,388.335 
	819.161,384.741 823.434,387.527 825.962,383.928 824.742,388.209 "/>
<polygon fill="#FFFFFF" points="538.575,302.643 533.512,301.508 532.709,306.904 531.963,301.777 527.178,302.825 531.727,300.01 
	529.446,295.9 533.104,299.457 536.276,296.411 534.255,300.377 "/>
<polygon fill="#FFFFFF" points="607.431,531.865 605.156,536.528 610.221,538.556 605.06,538.097 604.974,542.995 603.286,537.919 
	598.76,539.188 603.066,536.451 600.835,532.661 604.228,535.543 "/>
<polygon fill="#FFFFFF" points="603.636,437.293 602.338,442.316 607.706,443.292 602.557,443.873 603.451,448.69 600.784,444.052 
	596.603,446.2 600.275,442.659 597.333,439.39 601.232,441.537 "/>
<polygon fill="#FFFFFF" points="528.253,475.477 527.367,480.589 532.796,481.127 527.711,482.123 528.992,486.851 525.958,482.445 
	521.965,484.924 525.338,481.097 522.141,478.077 526.201,479.902 "/>
<polygon fill="#FFFFFF" points="486.536,399.508 483.355,403.608 487.899,406.629 482.941,405.124 481.855,409.902 481.241,404.587 
	476.551,404.905 481.326,403.106 479.917,398.939 482.648,402.455 "/>
<polygon fill="#FFFFFF" points="732.939,531.744 730.665,536.407 735.73,538.435 730.569,537.976 730.483,542.874 728.795,537.798 
	724.269,539.067 728.575,536.33 726.344,532.539 729.737,535.422 "/>
<polygon fill="#FFFFFF" points="542.58,400.986 541.282,406.01 546.65,406.986 541.501,407.566 542.395,412.383 539.727,407.746 
	535.546,409.893 539.219,406.352 536.276,403.083 540.176,405.23 "/>
<polygon fill="#FFFFFF" points="564.664,356.363 563.7,360.09 567.684,360.814 563.863,361.245 564.526,364.82 562.547,361.379 
	559.444,362.972 562.17,360.344 559.986,357.919 562.88,359.512 "/>
<polygon fill="#FFFFFF" points="796.816,437.52 795.93,442.632 801.359,443.17 796.274,444.166 797.555,448.894 794.521,444.488 
	790.528,446.967 793.901,443.14 790.703,440.12 794.764,441.945 "/>
<polygon fill="#927DB6" points="513.119,317.003 511.265,321.638 516.49,323 511.308,323 511.655,328.097 509.525,323.294 
	505.13,325.011 509.177,321.931 506.62,318.365 510.254,320.943 "/>
<polygon fill="#FFFFFF" points="398.448,36.997 393.703,34.897 391.865,40.034 392.132,34.859 387.234,34.955 392.244,33.08 
	390.808,28.604 393.702,32.805 397.408,30.436 394.653,33.933 "/>
<polygon fill="#FFFFFF" points="453.35,226.794 449.319,225.01 447.758,229.374 447.984,224.978 443.823,225.059 448.08,223.466 
	446.859,219.663 449.319,223.233 452.467,221.219 450.126,224.191 "/>
<polygon fill="#FFFFFF" points="578.649,193.661 573.75,191.952 572.334,197.221 572.181,192.042 567.307,192.534 572.148,190.26 
	570.354,185.915 573.58,189.868 577.081,187.206 574.618,190.915 "/>
<polygon fill="#FFFFFF" points="569.988,166.162 566.462,162.355 562.74,166.345 565.034,161.699 560.497,159.848 565.841,160.109 
	566.293,155.431 567.288,160.435 571.629,159.725 567.715,161.846 "/>
<polygon fill="#FFFFFF" points="875.524,552.252 871.294,549.247 868.467,553.914 869.762,548.897 864.943,548.013 870.227,547.176 
	869.713,542.504 871.711,547.198 875.814,545.616 872.417,548.492 "/>
<polygon fill="#FFFFFF" points="693.271,370.447 688.527,368.347 686.688,373.484 686.955,368.309 682.057,368.405 687.067,366.53 
	685.631,362.054 688.526,366.255 692.231,363.886 689.476,367.383 "/>
<polygon fill="#FFFFFF" points="787.228,508.186 782.329,506.477 780.913,511.746 780.76,506.567 775.885,507.059 780.727,504.785 
	778.933,500.44 782.159,504.393 785.66,501.731 783.197,505.44 "/>
<polygon fill="#FFFFFF" points="579.51,59.368 575.984,55.562 572.262,59.552 574.555,54.905 570.019,53.055 575.363,53.316 
	575.815,48.637 576.81,53.641 581.151,52.931 577.237,55.052 "/>
<polygon fill="#FFFFFF" points="615.029,35.583 610.55,32.964 608.147,37.862 608.993,32.75 604.115,32.295 609.304,30.995 
	608.379,26.386 610.784,30.886 614.732,28.947 611.602,32.112 "/>
<polygon fill="#FFFFFF" points="1162.802,158.68 1159.219,162.432 1163.429,165.902 1158.651,163.898 1157.081,168.539 
	1157.015,163.189 1152.318,163.025 1157.251,161.725 1156.277,157.435 1158.634,161.212 "/>
<polygon fill="#FFFFFF" points="891.894,454.717 889.132,459.109 893.95,461.669 888.868,460.659 888.257,465.519 887.123,460.291 
	882.488,461.067 887.062,458.809 885.251,454.8 888.315,458.031 "/>
<polygon fill="#FFFFFF" points="1059.04,332.59 1056.277,336.982 1061.096,339.541 1056.014,338.531 1055.402,343.392 
	1054.269,338.164 1049.634,338.94 1054.208,336.681 1052.397,332.673 1055.461,335.903 "/>
<polygon fill="#FFFFFF" points="838.055,469.337 833.78,472.277 837.192,476.535 832.924,473.596 830.439,477.818 831.468,472.568 
	826.903,471.446 831.998,471.182 831.921,466.784 833.456,470.963 "/>
<polygon fill="#FFFFFF" points="598.601,147.819 595.363,151.873 599.864,154.958 594.927,153.384 593.774,158.145 593.235,152.822 
	588.541,153.073 593.34,151.342 591.991,147.156 594.672,150.71 "/>
<polygon fill="#FFFFFF" points="613.193,111.753 610.43,116.145 615.249,118.705 610.167,117.695 609.555,122.556 608.422,117.327 
	603.787,118.104 608.361,115.845 606.55,111.837 609.614,115.067 "/>
<polygon fill="#FFFFFF" points="658.397,264.619 655.635,269.011 660.453,271.571 655.371,270.561 654.76,275.421 653.627,270.193 
	648.991,270.969 653.565,268.711 651.754,264.702 654.818,267.933 "/>
<polygon fill="#FFFFFF" points="990.982,74.814 988.585,79.415 993.595,81.576 988.448,80.981 988.232,85.875 986.679,80.756 
	982.122,81.905 986.498,79.283 984.368,75.435 987.683,78.406 "/>
<polygon fill="#FFFFFF" points="502.846,243.631 499.646,245.832 502.2,249.019 499.005,246.819 497.145,249.98 497.915,246.05 
	494.498,245.21 498.312,245.012 498.254,241.72 499.403,244.849 "/>
<polygon fill="#FFFFFF" points="650.46,43.877 647.222,47.931 651.722,51.016 646.786,49.441 645.633,54.203 645.094,48.88 
	640.4,49.131 645.199,47.4 643.85,43.214 646.531,46.768 "/>
<polygon fill="#FFFFFF" points="1013.243,122.653 1017.355,125.817 1020.358,121.261 1018.873,126.225 1023.655,127.292 
	1018.343,127.927 1018.679,132.616 1016.861,127.849 1012.7,129.274 1016.205,126.528 "/>
<polygon fill="#FFFFFF" points="967.704,154.699 972.365,156.978 974.398,151.914 973.934,157.075 978.833,157.166 973.755,158.849 
	975.02,163.376 972.287,159.067 968.494,161.295 971.38,157.905 "/>
<polygon fill="#927DB6" points="757.661,366.029 762.322,368.308 764.355,363.245 763.891,368.406 768.789,368.496 763.711,370.179 
	764.977,374.706 762.244,370.398 758.451,372.625 761.337,369.235 "/>
<polygon fill="#FFFFFF" points="939.275,481.157 942.654,485.094 946.524,481.249 944.056,485.804 948.518,487.826 943.189,487.362 
	942.559,492.02 941.754,486.982 937.39,487.527 941.382,485.556 "/>
<polygon fill="#FFFFFF" points="523.725,365.234 528.101,368.022 530.689,363.219 529.649,368.295 534.506,368.935 529.271,370.037 
	530.02,374.677 527.788,370.09 523.77,371.877 527.018,368.833 "/>
<polygon fill="#FFFFFF" points="614.421,328.894 619.377,330.431 620.607,325.115 620.942,330.286 625.796,329.623 621.036,332.066 
	622.982,336.345 619.62,332.508 616.214,335.291 618.545,331.498 "/>
<polygon fill="#FFFFFF" points="1151.962,288.547 1156.623,290.826 1158.656,285.763 1158.192,290.924 1163.09,291.014 
	1158.012,292.697 1159.278,297.224 1156.545,292.916 1152.752,295.143 1155.638,291.754 "/>
<polygon fill="#FFFFFF" points="539.623,329.67 544.454,331.564 546.069,326.352 546.025,331.534 550.915,331.227 545.99,333.316 
	547.617,337.725 544.545,333.653 540.945,336.18 543.547,332.567 "/>
<polygon fill="#FFFFFF" points="552.583,380.388 555.961,384.325 559.832,380.48 557.363,385.035 561.826,387.057 556.496,386.593 
	555.867,391.251 555.062,386.213 550.698,386.758 554.689,384.787 "/>
<polygon fill="#FFFFFF" points="1101.74,145.502 1106.116,148.29 1108.704,143.487 1107.664,148.563 1112.521,149.203 
	1107.286,150.305 1108.035,154.945 1105.803,150.358 1101.784,152.145 1105.033,149.101 "/>
<polygon fill="#FFFFFF" points="579.378,121.008 583.102,117.395 579.026,113.767 583.725,115.952 585.469,111.374 585.332,116.722 
	590.02,117.065 585.041,118.177 585.851,122.5 583.64,118.636 "/>
<polygon fill="#FFFFFF" points="642.737,93.767 645.664,89.483 640.947,86.742 645.987,87.945 646.782,83.111 647.716,88.378 
	652.378,87.779 647.721,89.862 649.378,93.936 646.439,90.592 "/>
<polygon fill="#927DB6" points="486.322,180.824 489.249,176.54 484.531,173.799 489.571,175.002 490.367,170.168 491.3,175.435 
	495.962,174.836 491.305,176.919 492.962,180.993 490.024,177.649 "/>
<polygon fill="#FFFFFF" points="555.009,259.66 557.58,255.153 552.656,252.803 557.776,253.593 558.178,248.711 559.535,253.885 
	564.133,252.91 559.66,255.364 561.642,259.29 558.442,256.195 "/>
<polygon fill="#FFFFFF" points="1162.624,412.139 1167.008,409.363 1163.76,404.979 1167.913,408.078 1170.557,403.954 
	1169.329,409.161 1173.848,410.455 1168.747,410.525 1168.656,414.923 1167.281,410.688 "/>
<polygon fill="#FFFFFF" points="569.054,308.131 572.444,304.203 568.064,300.95 572.937,302.711 574.27,297.997 574.607,303.336 
	579.306,303.263 574.445,304.811 575.634,309.045 573.09,305.392 "/>
<polygon fill="#927DB6" points="567.18,218.053 570.904,214.44 566.828,210.812 571.527,212.997 573.271,208.419 573.134,213.767 
	577.822,214.111 572.843,215.222 573.653,219.545 571.442,215.681 "/>
<polygon fill="#FFFFFF" points="1109.415,224.712 1112.342,220.428 1107.625,217.687 1112.665,218.889 1113.46,214.055 
	1114.394,219.323 1119.056,218.724 1114.399,220.807 1116.056,224.881 1113.117,221.536 "/>
<polygon fill="#FFFFFF" points="648.331,486.233 651.258,481.949 646.54,479.208 651.58,480.41 652.376,475.576 653.309,480.844 
	657.971,480.245 653.314,482.328 654.971,486.402 652.033,483.057 "/>
<polygon fill="#FFFFFF" points="655.379,320.031 659.762,317.255 656.515,312.871 660.667,315.97 663.311,311.846 662.084,317.053 
	666.602,318.347 661.501,318.417 661.41,322.815 660.036,318.58 "/>
<polygon fill="#FFFFFF" points="467.347,501.201 470.305,505.464 474.549,502.035 471.627,506.314 475.859,508.783 470.605,507.775 
	469.501,512.344 469.217,507.25 464.82,507.344 468.992,505.793 "/>
<polygon fill="#FFFFFF" points="1056.739,507.755 1060.488,511.342 1063.962,507.135 1061.953,511.911 1066.593,513.485 
	1061.243,513.546 1061.074,518.244 1059.779,513.309 1055.489,514.279 1059.268,511.926 "/>
<polygon fill="#FFFFFF" points="549.55,421.626 553.299,425.213 556.773,421.006 554.764,425.782 559.404,427.356 554.054,427.417 
	553.885,432.115 552.59,427.18 548.3,428.15 552.079,425.797 "/>
<polygon fill="#FFFFFF" points="1062.065,258.457 1066.092,261.729 1069.214,257.254 1067.599,262.177 1072.35,263.37 
	1067.023,263.865 1067.235,268.56 1065.544,263.747 1061.347,265.061 1064.923,262.41 "/>
<polygon fill="#FFFFFF" points="425.87,447.263 427.893,452.041 432.749,449.552 429.014,453.144 432.651,456.425 427.714,454.365 
	425.7,458.611 426.463,453.567 422.14,452.76 426.541,452.095 "/>
<polygon fill="#FFFFFF" points="376.951,424.406 380.274,428.391 384.198,424.601 381.666,429.121 386.099,431.206 380.777,430.667 
	380.081,435.315 379.348,430.266 374.976,430.749 378.996,428.835 "/>
<polygon fill="#FFFFFF" points="578.128,475.253 581.086,479.516 585.33,476.087 582.408,480.366 586.639,482.834 581.385,481.827 
	580.282,486.396 579.998,481.302 575.6,481.396 579.773,479.844 "/>
<polygon fill="#FFFFFF" points="454.541,399.086 458.29,402.673 461.764,398.466 459.755,403.242 464.395,404.816 459.046,404.877 
	458.876,409.575 457.581,404.64 453.291,405.61 457.07,403.257 "/>
<polygon fill="#FFFFFF" points="379.31,213.248 383.059,216.835 386.533,212.628 384.524,217.404 389.163,218.978 383.814,219.039 
	383.645,223.736 382.349,218.802 378.059,219.772 381.839,217.419 "/>
<polygon fill="#FFFFFF" points="402.898,395.349 406.926,398.621 410.047,394.146 408.432,399.069 413.184,400.262 407.857,400.757 
	408.069,405.452 406.378,400.639 402.181,401.953 405.757,399.302 "/>
<polygon fill="#927DB6" points="399.844,447.607 401.867,452.385 406.723,449.896 402.988,453.488 406.626,456.769 401.689,454.708 
	399.674,458.955 400.438,453.911 396.114,453.104 400.516,452.438 "/>
<polygon fill="#FFFFFF" points="366.87,383.759 370.192,387.744 374.117,383.953 371.584,388.474 376.018,390.558 370.695,390.019 
	370,394.668 369.267,389.619 364.895,390.101 368.914,388.187 "/>
<polygon fill="#FFFFFF" points="1037.852,315.339 1042.497,313.027 1039.716,308.333 1043.529,311.841 1046.581,308.01 
	1044.827,313.064 1049.189,314.814 1044.107,314.361 1043.567,318.726 1042.633,314.373 "/>
<polygon fill="#FFFFFF" points="439.924,279.238 444.014,276.045 440.352,272.001 444.788,274.677 447.014,270.313 446.304,275.616 
	450.928,276.46 445.858,277.031 446.2,281.416 444.416,277.337 "/>
<polygon fill="#FFFFFF" points="438.818,333.318 442.636,329.804 438.658,326.07 443.297,328.378 445.162,323.848 444.884,329.191 
	449.561,329.658 444.554,330.637 445.25,334.98 443.141,331.059 "/>
<polygon fill="#FFFFFF" points="437.48,383.766 441.903,381.052 438.718,376.622 442.826,379.78 445.528,375.693 444.227,380.882 
	448.727,382.241 443.625,382.239 443.472,386.634 442.157,382.381 "/>
<polygon fill="#FFFFFF" points="463.049,297.372 467.694,295.06 464.913,290.366 468.726,293.875 471.778,290.043 470.024,295.097 
	474.386,296.847 469.304,296.394 468.764,300.759 467.83,296.406 "/>
<polygon fill="#FFFFFF" points="350.193,277.561 354.283,274.369 350.621,270.324 355.057,273.001 357.284,268.637 356.573,273.939 
	361.197,274.784 356.127,275.354 356.469,279.739 354.685,275.661 "/>
<polygon fill="#FFFFFF" points="266.817,221.533 270.907,218.34 267.245,214.296 271.681,216.972 273.908,212.608 273.197,217.91 
	277.821,218.755 272.751,219.325 273.093,223.71 271.309,219.632 "/>
<polygon fill="#FFFFFF" points="297.461,329.125 300.198,326.606 297.346,323.929 300.672,325.584 302.01,322.336 301.81,326.166 
	305.164,326.501 301.574,327.203 302.073,330.317 300.561,327.506 "/>
<polygon fill="#FFFFFF" points="427.804,556.882 432.226,554.168 429.041,549.738 433.149,552.896 435.851,548.809 434.55,553.999 
	439.05,555.357 433.948,555.355 433.796,559.75 432.481,555.497 "/>
<polygon fill="#FFFFFF" points="872.678,318.358 876.79,321.522 879.792,316.966 878.308,321.93 883.089,322.997 877.778,323.632 
	878.114,328.32 876.296,323.553 872.135,324.979 875.639,322.233 "/>
<polygon fill="#FFFFFF" points="850.204,289.367 854.866,291.646 856.898,286.583 856.435,291.744 861.333,291.834 856.255,293.517 
	857.52,298.044 854.787,293.736 850.994,295.963 853.88,292.573 "/>
<polygon fill="#FFFFFF" points="846.166,265.003 850.827,267.282 852.86,262.219 852.396,267.379 857.294,267.47 852.216,269.153 
	853.482,273.68 850.749,269.372 846.956,271.599 849.842,268.209 "/>
<polygon fill="#FFFFFF" points="968.1,315.053 972.931,316.946 974.546,311.735 974.502,316.916 979.392,316.61 974.467,318.699 
	976.095,323.108 973.022,319.036 969.422,321.563 972.024,317.95 "/>
<polygon fill="#FFFFFF" points="847.761,352.358 851.14,356.296 855.01,352.45 852.542,357.006 857.005,359.027 851.675,358.564 
	851.046,363.221 850.241,358.184 845.876,358.728 849.868,356.757 "/>
<polygon fill="#FFFFFF" points="816.081,425.882 820.456,428.67 823.044,423.867 822.004,428.943 826.862,429.583 821.627,430.685 
	822.376,435.325 820.144,430.738 816.125,432.525 819.373,429.481 "/>
<polygon fill="#FFFFFF" points="1019.027,228.098 1023.139,231.262 1026.141,226.706 1024.657,231.67 1029.438,232.737 
	1024.126,233.372 1024.463,238.061 1022.645,233.294 1018.484,234.719 1021.988,231.973 "/>
<polygon fill="#FFFFFF" points="821.397,285.252 826.058,287.531 828.09,282.468 827.627,287.629 832.525,287.719 827.447,289.402 
	828.712,293.929 825.979,289.621 822.187,291.848 825.073,288.458 "/>
<polygon fill="#927DB6" points="781.477,251.918 786.138,254.197 788.17,249.133 787.707,254.294 792.605,254.385 787.527,256.068 
	788.793,260.595 786.06,256.287 782.267,258.514 785.153,255.124 "/>
<polygon fill="#FFFFFF" points="771.058,297.375 775.888,299.268 777.504,294.057 777.46,299.238 782.349,298.932 777.424,301.021 
	779.052,305.43 775.979,301.358 772.379,303.885 774.981,300.272 "/>
<polygon fill="#FFFFFF" points="996.017,366.092 999.396,370.03 1003.266,366.184 1000.798,370.74 1005.261,372.762 
	999.931,372.298 999.302,376.956 998.497,371.918 994.132,372.462 998.124,370.491 "/>
<polygon fill="#FFFFFF" points="803.002,157.444 806.726,153.831 802.651,150.203 807.349,152.388 809.094,147.81 808.957,153.158 
	813.645,153.501 808.665,154.613 809.476,158.936 807.264,155.072 "/>
<polygon fill="#FFFFFF" points="717.756,148.529 720.683,144.245 715.966,141.504 721.006,142.706 721.802,137.872 722.735,143.14 
	727.397,142.541 722.74,144.624 724.397,148.698 721.459,145.354 "/>
<polygon fill="#FFFFFF" points="863.766,239.861 866.337,235.354 861.413,233.004 866.534,233.795 866.935,228.912 868.292,234.087 
	872.89,233.112 868.417,235.565 870.399,239.492 867.199,236.396 "/>
<polygon fill="#FFFFFF" points="815.059,223.844 819.443,221.068 816.195,216.684 820.348,219.783 822.992,215.659 821.764,220.866 
	826.283,222.16 821.181,222.23 821.091,226.628 819.716,222.393 "/>
<polygon fill="#FFFFFF" points="928.615,176.758 932.338,173.145 928.263,169.517 932.961,171.702 934.706,167.124 934.569,172.472 
	939.257,172.815 934.278,173.927 935.088,178.25 932.876,174.386 "/>
<polygon fill="#FFFFFF" points="762.85,203.417 765.777,199.133 761.059,196.392 766.099,197.594 766.895,192.76 767.828,198.028 
	772.49,197.428 767.833,199.512 769.49,203.586 766.552,200.241 "/>
<polygon fill="#FFFFFF" points="738.659,264.621 741.229,260.114 736.305,257.764 741.426,258.554 741.827,253.672 743.185,258.846 
	747.783,257.871 743.31,260.325 745.292,264.251 742.092,261.156 "/>
<polygon fill="#FFFFFF" points="858.696,201.041 863.08,198.265 859.832,193.881 863.985,196.98 866.629,192.856 865.401,198.062 
	869.92,199.357 864.818,199.427 864.728,203.824 863.353,199.59 "/>
<polygon fill="#FFFFFF" points="757.782,457.906 760.739,462.169 764.983,458.74 762.061,463.019 766.293,465.487 761.039,464.48 
	759.936,469.049 759.652,463.955 755.254,464.049 759.427,462.497 "/>
<polygon fill="#FFFFFF" points="901.174,253.46 904.923,257.047 908.397,252.84 906.388,257.616 911.027,259.189 905.678,259.251 
	905.509,263.948 904.213,259.014 899.923,259.984 903.702,257.631 "/>
<polygon fill="#FFFFFF" points="780.985,389.331 784.734,392.918 788.208,388.71 786.199,393.487 790.838,395.06 785.489,395.122 
	785.32,399.819 784.024,394.885 779.734,395.855 783.513,393.502 "/>
<polygon fill="#FFFFFF" points="938.499,387.162 942.527,390.433 945.648,385.959 944.033,390.882 948.785,392.074 943.458,392.569 
	943.67,397.265 941.979,392.451 937.782,393.766 941.358,391.114 "/>
<polygon fill="#927DB6" points="657.305,414.968 659.328,419.746 664.183,417.257 660.448,420.849 664.086,424.13 659.149,422.069 
	657.135,426.316 657.898,421.272 653.574,420.465 657.976,419.799 "/>
<polygon fill="#FFFFFF" points="608.386,392.111 611.708,396.096 615.633,392.306 613.1,396.826 617.534,398.911 612.211,398.371 
	611.516,403.02 610.783,397.971 606.411,398.454 610.43,396.54 "/>
<polygon fill="#FFFFFF" points="697.563,404.957 700.52,409.221 704.764,405.792 701.842,410.071 706.074,412.539 700.82,411.531 
	699.717,416.1 699.432,411.007 695.035,411.101 699.208,409.549 "/>
<polygon fill="#FFFFFF" points="679.983,382.438 682.61,384.951 685.045,382.003 683.637,385.35 686.889,386.453 683.14,386.496 
	683.021,389.788 682.113,386.33 679.107,387.01 681.755,385.361 "/>
<polygon fill="#FFFFFF" points="610.744,180.953 614.493,184.54 617.967,180.332 615.959,185.109 620.598,186.682 615.249,186.744 
	615.08,191.441 613.784,186.507 609.494,187.477 613.273,185.124 "/>
<polygon fill="#FFFFFF" points="693.692,449.749 697.719,453.02 700.841,448.545 699.225,453.469 703.977,454.661 698.65,455.156 
	698.862,459.852 697.171,455.038 692.974,456.353 696.55,453.701 "/>
<polygon fill="#927DB6" points="631.279,415.312 633.302,420.09 638.158,417.601 634.422,421.192 638.06,424.474 633.123,422.413 
	631.109,426.66 631.872,421.616 627.548,420.809 631.95,420.143 "/>
<polygon fill="#FFFFFF" points="598.304,351.464 601.627,355.449 605.551,351.658 603.019,356.179 607.452,358.263 602.13,357.724 
	601.435,362.372 600.701,357.324 596.329,357.806 600.349,355.892 "/>
<polygon fill="#FFFFFF" points="875.231,42.557 879.876,40.245 877.095,35.551 880.908,39.06 883.96,35.228 882.206,40.282 
	886.568,42.032 881.486,41.579 880.946,45.944 880.012,41.591 "/>
<polygon fill="#FFFFFF" points="900.202,301.615 904.292,298.423 900.63,294.378 905.066,297.055 907.292,292.691 906.582,297.993 
	911.206,298.838 906.136,299.408 906.478,303.793 904.694,299.714 "/>
<polygon fill="#FFFFFF" points="1118.586,362.358 1123.605,361.044 1121.843,355.881 1124.858,360.095 1128.629,356.968 
	1125.879,361.556 1129.791,364.162 1124.909,362.679 1123.487,366.842 1123.463,362.39 "/>
<polygon fill="#927DB6" points="676.417,350.557 678.37,345.75 673.179,344.071 678.36,344.178 678.113,339.285 680.141,344.236 
	684.571,342.662 680.461,345.685 682.943,349.315 679.363,346.669 "/>
<polygon fill="#FFFFFF" points="663.597,558.334 667.687,555.141 664.024,551.097 668.461,553.773 670.687,549.409 669.977,554.712 
	674.601,555.556 669.531,556.127 669.873,560.512 668.089,556.433 "/>
<polygon fill="#FFFFFF" points="864.795,425.229 868.613,421.715 864.635,417.981 869.274,420.289 871.139,415.759 870.861,421.102 
	875.538,421.569 870.531,422.548 871.227,426.891 869.118,422.97 "/>
<polygon fill="#FFFFFF" points="695.174,332.161 700.194,330.848 698.431,325.684 701.446,329.898 705.218,326.772 702.467,331.36 
	706.379,333.965 701.497,332.483 700.076,336.645 700.051,332.193 "/>
<polygon fill="#FFFFFF" points="627.239,355.586 631.661,352.873 628.476,348.443 632.584,351.601 635.286,347.514 633.985,352.703 
	638.485,354.062 633.383,354.059 633.23,358.455 631.915,354.202 "/>
<polygon fill="#FFFFFF" points="297.53,353.55 302.718,353.485 302.251,348.049 304.162,352.865 308.576,350.739 304.801,354.529 
	307.97,358.001 303.589,355.386 301.207,359.083 302.256,354.756 "/>
<polygon fill="#927DB6" points="261.927,344.723 266.997,343.623 265.455,338.39 268.289,342.728 272.189,339.763 269.247,344.231 
	273.045,347 268.231,345.312 266.634,349.41 266.798,344.962 "/>
<polygon fill="#FFFFFF" points="232.445,543.957 237.41,542.45 235.448,537.359 238.625,541.452 242.272,538.182 239.701,542.873 
	243.711,545.325 238.776,544.033 237.517,548.247 237.32,543.8 "/>
<polygon fill="#FFFFFF" points="260.65,410.067 265.742,411.064 266.396,405.647 267.282,410.752 272.037,409.574 267.567,412.512 
	269.959,416.558 266.206,413.103 263.118,416.235 265.029,412.214 "/>
<polygon fill="#FFFFFF" points="214.332,437.818 219.494,437.294 218.548,431.921 220.878,436.549 225.086,434.042 221.661,438.151 
	225.124,441.329 220.53,439.111 218.483,443.004 219.146,438.602 "/>
<polygon fill="#927DB6" points="274.882,371.101 280.07,371.035 279.603,365.599 281.514,370.415 285.928,368.29 282.153,372.08 
	285.322,375.551 280.941,372.936 278.559,376.633 279.608,372.307 "/>
<polygon fill="#FFFFFF" points="110.767,506.345 115.837,505.245 114.295,500.012 117.129,504.35 121.029,501.385 118.087,505.853 
	121.885,508.622 117.071,506.934 115.474,511.032 115.639,506.584 "/>
<polygon fill="#FFFFFF" points="184.779,357.92 189.85,356.82 188.307,351.587 191.141,355.925 195.042,352.96 192.099,357.428 
	195.897,360.197 191.083,358.509 189.486,362.608 189.651,358.159 "/>
<polygon fill="#FFFFFF" points="193.371,499.829 198.462,500.825 199.117,495.409 200.003,500.514 204.758,499.335 200.288,502.274 
	202.68,506.32 198.927,502.864 195.839,505.996 197.75,501.976 "/>
<polygon fill="#FFFFFF" points="175.003,423.427 180.165,422.903 179.219,417.53 181.549,422.158 185.757,419.65 182.332,423.759 
	185.795,426.937 181.201,424.72 179.154,428.613 179.817,424.21 "/>
<polygon fill="#FFFFFF" points="143.129,270.433 143.812,265.29 138.366,264.968 143.407,263.771 141.94,259.097 145.146,263.379 
	149.038,260.744 145.819,264.702 149.134,267.593 145.004,265.931 "/>
<polygon fill="#FFFFFF" points="129.262,304.392 128.904,299.216 123.503,299.988 128.204,297.808 125.833,293.521 129.83,297.077 
	133.117,293.718 130.753,298.239 134.579,300.409 130.2,299.605 "/>
<polygon fill="#FFFFFF" points="70.699,316.262 70.342,311.086 64.941,311.858 69.642,309.679 67.271,305.392 71.267,308.947 
	74.555,305.588 72.191,310.109 76.016,312.28 71.637,311.476 "/>
<polygon fill="#FFFFFF" points="173.462,335.572 172.687,330.441 167.366,331.649 171.875,329.096 169.164,325.015 173.436,328.235 
	176.44,324.62 174.45,329.318 178.439,331.172 174.009,330.725 "/>
<polygon fill="#FFFFFF" points="1111.701,564.61 1113.129,560.548 1108.759,559.362 1113.058,559.245 1112.659,555.199 
	1114.537,559.222 1118.146,557.742 1114.859,560.411 1117.062,563.321 1113.989,561.271 "/>
<polygon fill="#FFFFFF" points="222.333,357.101 222.559,351.917 217.105,352.078 222.021,350.44 220.146,345.914 223.719,349.896 
	227.363,346.927 224.506,351.154 228.063,353.74 223.802,352.45 "/>
<polygon fill="#FFFFFF" points="156.293,294.294 156.872,289.936 152.257,289.664 156.528,288.65 155.285,284.689 158.002,288.318 
	161.3,286.085 158.572,289.438 161.381,291.887 157.881,290.479 "/>
<polygon fill="#FFFFFF" points="140.104,331.397 139.746,326.221 134.345,326.993 139.046,324.814 136.675,320.527 140.672,324.082 
	143.959,320.723 141.595,325.244 145.421,327.415 141.042,326.611 "/>
<polygon fill="#927DB6" points="131.199,382.636 130.841,377.46 125.44,378.232 130.141,376.053 127.77,371.766 131.767,375.322 
	135.054,371.962 132.69,376.483 136.516,378.654 132.137,377.85 "/>
<polygon fill="#FFFFFF" points="48.919,440.505 48.143,435.375 42.822,436.582 47.331,434.029 44.621,429.948 48.893,433.168 
	51.897,429.554 49.907,434.251 53.896,436.105 49.466,435.658 "/>
<polygon fill="#FFFFFF" points="609.611,285.754 609.838,280.571 604.384,280.732 609.3,279.094 607.425,274.568 610.997,278.55 
	614.641,275.581 611.784,279.808 615.342,282.394 611.081,281.103 "/>
<polygon fill="#FFFFFF" points="234.415,286.183 239.58,286.675 239.7,281.22 241.083,286.214 245.699,284.574 241.539,287.937 
	244.317,291.729 240.243,288.658 237.477,292.078 238.984,287.89 "/>
<polygon fill="#927DB6" points="269.545,466.074 274.71,466.566 274.83,461.111 276.213,466.105 280.829,464.465 276.669,467.828 
	279.447,471.619 275.373,468.549 272.607,471.969 274.115,467.781 "/>
<polygon fill="#FFFFFF" points="188.362,413.66 192.911,416.156 195.179,411.194 194.473,416.327 199.362,416.648 194.21,418.091 
	195.261,422.672 192.734,418.24 188.841,420.286 191.883,417.036 "/>
<polygon fill="#FFFFFF" points="241.804,511.035 246.881,512.104 247.612,506.697 248.426,511.814 253.197,510.703 248.686,513.578 
	251.021,517.657 247.317,514.149 244.184,517.237 246.153,513.244 "/>
<polygon fill="#FFFFFF" points="213.374,381.073 217.098,382.208 218.003,378.216 218.272,382.094 221.912,381.58 218.349,383.43 
	219.823,386.634 217.287,383.766 214.741,385.866 216.478,383.012 "/>
<polygon fill="#FFFFFF" points="6.803,408.023 11.969,408.515 12.088,403.061 13.471,408.054 18.088,406.414 13.927,409.778 
	16.705,413.569 12.631,410.499 9.865,413.919 11.373,409.73 "/>
<polygon fill="#FFFFFF" points="805.162,553.151 810.35,553.223 810.027,547.776 811.811,552.641 816.279,550.633 812.405,554.322 
	815.481,557.876 811.171,555.146 808.692,558.779 809.855,554.481 "/>
<polygon fill="#FFFFFF" points="102.703,400.38 107.78,401.449 108.511,396.042 109.325,401.159 114.096,400.048 109.585,402.923 
	111.92,407.002 108.215,403.494 105.083,406.582 107.052,402.589 "/>
<polygon fill="#FFFFFF" points="69.787,389.945 72,385.252 66.909,383.291 72.076,383.682 72.097,378.783 73.852,383.836 
	78.36,382.507 74.091,385.301 76.372,389.062 72.941,386.224 "/>
<polygon fill="#FFFFFF" points="95.27,422.254 96.501,417.214 91.121,416.309 96.261,415.661 95.304,410.856 98.032,415.458 
	102.185,413.255 98.559,416.845 101.545,420.074 97.617,417.979 "/>
<polygon fill="#FFFFFF" points="1.449,475.174 2.68,470.133 -2.7,469.229 2.44,468.58 1.483,463.775 4.212,468.377 8.364,466.174 
	4.738,469.764 7.724,472.994 3.796,470.898 "/>
<polygon fill="#FFFFFF" points="127.914,465.384 128.733,460.261 123.297,459.795 128.368,458.732 127.025,454.02 130.117,458.386 
	134.077,455.854 130.755,459.726 133.992,462.703 129.907,460.932 "/>
<polygon fill="#FFFFFF" points="62.457,559.014 65.583,554.873 61,551.912 65.978,553.351 67,548.56 67.685,553.866 72.37,553.486 
	67.62,555.348 69.083,559.496 66.305,556.017 "/>
<polygon fill="#FFFFFF" points="114.503,352.644 116.716,347.952 111.625,345.991 116.791,346.382 116.813,341.483 118.567,346.536 
	123.076,345.207 118.807,348.001 121.087,351.762 117.657,348.924 "/>
<polygon fill="#FFFFFF" points="97.399,451.276 98.63,446.236 93.25,445.332 98.39,444.683 97.433,439.878 100.162,444.48 
	104.314,442.277 100.689,445.867 103.674,449.097 99.746,447.001 "/>
<polygon fill="#FFFFFF" points="73.354,348.214 74.586,343.174 69.205,342.269 74.346,341.62 73.389,336.816 76.117,341.417 
	80.269,339.215 76.644,342.804 79.63,346.034 75.702,343.939 "/>
<polygon fill="#FFFFFF" points="30.996,393.752 31.815,388.628 26.379,388.162 31.45,387.099 30.107,382.388 33.199,386.754 
	37.159,384.222 33.836,388.093 37.074,391.071 32.989,389.3 "/>
<polygon fill="#927DB6" points="166.77,474.38 169.895,470.239 165.312,467.278 170.29,468.717 171.312,463.926 171.997,469.232 
	176.682,468.852 171.932,470.714 173.395,474.862 170.618,471.383 "/>
<polygon fill="#FFFFFF" points="423.556,175.96 428.626,174.86 427.083,169.626 429.918,173.964 433.818,171 430.876,175.468 
	434.674,178.236 429.859,176.549 428.263,180.647 428.427,176.198 "/>
<polygon fill="#FFFFFF" points="1056.074,40.193 1061.039,38.686 1059.077,33.595 1062.253,37.689 1065.901,34.418 1063.33,39.11 
	1067.34,41.562 1062.405,40.27 1061.145,44.484 1060.949,40.036 "/>
<polygon fill="#FFFFFF" points="422.279,241.304 427.37,242.3 428.025,236.884 428.911,241.989 433.666,240.81 429.196,243.749 
	431.588,247.795 427.835,244.339 424.747,247.471 426.658,243.451 "/>
<polygon fill="#927DB6" points="476.96,476.055 482.122,475.531 481.177,470.157 483.506,474.786 487.715,472.278 484.29,476.387 
	487.753,479.565 483.158,477.348 481.112,481.241 481.775,476.838 "/>
<polygon fill="#927DB6" points="436.511,202.337 441.699,202.272 441.232,196.836 443.143,201.652 447.557,199.526 443.782,203.316 
	446.951,206.788 442.57,204.173 440.187,207.87 441.237,203.543 "/>
<polygon fill="#FFFFFF" points="258.528,186.713 263.69,186.189 262.745,180.816 265.074,185.444 269.283,182.937 265.857,187.046 
	269.321,190.224 264.726,188.006 262.679,191.899 263.342,187.497 "/>
<polygon fill="#FFFFFF" points="304.758,101.67 305.441,96.527 299.995,96.205 305.036,95.008 303.569,90.334 306.775,94.616 
	310.667,91.981 307.448,95.938 310.763,98.829 306.633,97.167 "/>
<polygon fill="#FFFFFF" points="584.56,416.801 584.203,411.625 578.801,412.397 583.502,410.218 581.131,405.931 585.128,409.487 
	588.416,406.127 586.051,410.648 589.877,412.819 585.498,412.015 "/>
<polygon fill="#FFFFFF" points="232.328,147.499 231.971,142.322 226.569,143.094 231.27,140.915 228.899,136.628 232.896,140.184 
	236.184,136.824 233.819,141.345 237.645,143.516 233.266,142.712 "/>
<polygon fill="#FFFFFF" points="335.091,166.808 334.315,161.678 328.994,162.885 333.503,160.332 330.793,156.251 335.065,159.472 
	338.069,155.857 336.079,160.554 340.068,162.408 335.638,161.962 "/>
<polygon fill="#FFFFFF" points="355.368,146.313 357.088,141.418 351.822,139.989 357.002,139.848 356.521,134.973 358.785,139.82 
	363.133,138.036 359.173,141.252 361.827,144.76 358.124,142.288 "/>
<polygon fill="#FFFFFF" points="428.205,43.822 428.888,38.678 423.442,38.356 428.483,37.16 427.016,32.485 430.222,36.768 
	434.114,34.132 430.895,38.09 434.21,40.981 430.08,39.319 "/>
<polygon fill="#FFFFFF" points="18.217,236.051 17.859,230.875 12.458,231.647 17.159,229.467 14.788,225.18 18.785,228.736 
	22.072,225.377 19.708,229.898 23.534,232.068 19.155,231.264 "/>
<polygon fill="#FFFFFF" points="556.674,565.66 555.898,560.53 550.577,561.737 555.086,559.184 552.376,555.103 556.647,558.324 
	559.652,554.709 557.662,559.407 561.65,561.26 557.221,560.814 "/>
<polygon fill="#FFFFFF" points="349.069,51.892 350.79,46.997 345.524,45.568 350.704,45.427 350.223,40.552 352.486,45.399 
	356.835,43.615 352.874,46.831 355.528,50.339 351.825,47.867 "/>
<polygon fill="#FFFFFF" points="402.292,351.426 407.255,352.939 408.461,347.618 408.819,352.787 413.67,352.102 408.922,354.567 
	410.888,358.837 407.508,355.015 404.115,357.814 406.429,354.01 "/>
<polygon fill="#FFFFFF" points="389.015,293.934 394.18,294.426 394.299,288.971 395.682,293.964 400.299,292.324 396.139,295.688 
	398.917,299.479 394.842,296.409 392.076,299.829 393.584,295.64 "/>
<polygon fill="#FFFFFF" points="349.991,394.075 354.54,396.571 356.808,391.609 356.102,396.742 360.991,397.063 355.839,398.505 
	356.89,403.086 354.363,398.654 350.469,400.7 353.512,397.45 "/>
<polygon fill="#FFFFFF" points="905.433,522.45 910.51,523.518 911.241,518.111 912.055,523.229 916.826,522.117 912.315,524.992 
	914.65,529.072 910.945,525.563 907.813,528.651 909.782,524.658 "/>
<polygon fill="#FFFFFF" points="357.384,510.27 362.347,511.784 363.553,506.462 363.911,511.632 368.762,510.946 364.014,513.411 
	365.98,517.681 362.6,513.859 359.207,516.658 361.521,512.855 "/>
<polygon fill="#FFFFFF" points="956.639,547.495 961.804,547.987 961.923,542.533 963.307,547.526 967.923,545.886 963.763,549.249 
	966.541,553.041 962.466,549.971 959.7,553.391 961.208,549.202 "/>
<polygon fill="#FFFFFF" points="299.791,367.565 304.979,367.637 304.656,362.19 306.439,367.055 310.908,365.047 307.034,368.736 
	310.11,372.29 305.8,369.56 303.32,373.193 304.484,368.896 "/>
<polygon fill="#FFFFFF" points="323.778,477.472 328.326,479.968 330.595,475.006 329.889,480.139 334.777,480.46 329.626,481.903 
	330.676,486.484 328.15,482.052 324.256,484.098 327.298,480.848 "/>
<polygon fill="#927DB6" points="261.988,284.727 267.066,285.796 267.797,280.389 268.611,285.506 273.382,284.395 268.87,287.27 
	271.205,291.349 267.501,287.841 264.369,290.929 266.337,286.936 "/>
<polygon fill="#FFFFFF" points="256.898,253.491 258.13,248.451 252.749,247.546 257.89,246.897 256.933,242.092 259.661,246.694 
	263.814,244.492 260.188,248.081 263.174,251.311 259.246,249.215 "/>
<polygon fill="#FFFFFF" points="319.033,554.141 319.852,549.018 314.415,548.552 319.487,547.489 318.143,542.778 321.236,547.143 
	325.196,544.612 321.873,548.483 325.111,551.461 321.026,549.69 "/>
<polygon fill="#FFFFFF" points="1087.593,406.893 1088.916,403.293 1085.039,402.182 1088.868,402.132 1088.564,398.523 
	1090.186,402.13 1093.419,400.856 1090.458,403.192 1092.383,405.812 1089.672,403.947 "/>
<polygon fill="#FFFFFF" points="34.011,279.948 36.224,275.255 31.132,273.295 36.299,273.685 36.32,268.786 38.075,273.84 
	42.584,272.511 38.314,275.304 40.595,279.065 37.165,276.228 "/>
<polygon fill="#FFFFFF" points="284.802,320.784 286.033,315.743 280.653,314.839 285.793,314.19 284.836,309.385 287.565,313.987 
	291.717,311.785 288.091,315.374 291.077,318.604 287.149,316.508 "/>
<polygon fill="#FFFFFF" points="234.983,328.628 236.215,323.588 230.834,322.684 235.975,322.035 235.018,317.23 237.746,321.832 
	241.898,319.629 238.273,323.219 241.258,326.449 237.331,324.353 "/>
<polygon fill="#FFFFFF" points="420.676,516.253 421.377,511.864 416.72,511.465 421.065,510.554 419.914,506.518 422.563,510.258 
	425.955,508.089 423.109,511.405 425.882,513.956 422.383,512.439 "/>
<polygon fill="#FFFFFF" points="1114.399,457.617 1117.524,453.475 1112.941,450.515 1117.919,451.954 1118.941,447.163 
	1119.626,452.468 1124.311,452.089 1119.561,453.951 1121.024,458.098 1118.246,454.619 "/>
</svg>